<svg width="256" height="40" viewBox="0 0 256 40" fill="none" xmlns="http://www.w3.org/2000/svg"><path d="M3.311 26.537c-1.825 0-3.3-1.445-3.3-3.235 0-1.79 1.475-3.235 3.3-3.235h13.971c.85 0 1.587-.334 2.132-.956l4.116-4.67c.556-.633 1.281-.956 2.143-.956h10.15c1.825 0 3.3 1.446 3.3 3.235 0 1.79-1.475 3.236-3.3 3.236h-13.96c-.85 0-1.587.322-2.143.956l-4.116 4.68c-.556.634-1.282.956-2.132.956H3.312v-.011zM33.6 0h2.222c1.826 0 3.3 1.445 3.3 3.235 0 1.79-1.474 3.235-3.3 3.235H29.79a2.8 2.8 0 0 0-2.144.956l-4.116 4.67c-.556.633-1.293.956-2.143.956H3.3c-1.826 0-3.3-1.446-3.3-3.235C0 8.027 1.474 6.58 3.3 6.58h21.908c.85 0 1.588-.333 2.132-.956L31.456.956A2.795 2.795 0 0 1 33.6 0zM5.534 40H3.31c-1.825 0-3.3-1.445-3.3-3.235 0-1.79 1.475-3.235 3.3-3.235h6.044c.85 0 1.588-.334 2.132-.956l4.117-4.67c.555-.633 1.28-.956 2.143-.956h18.087c1.825 0 3.3 1.446 3.3 3.235 0 1.79-1.475 3.236-3.3 3.236H13.925c-.85 0-1.587.322-2.132.956l-4.116 4.669A2.795 2.795 0 0 1 5.534 40z" fill="#fff"/><path d="M3.311 26.537c-1.825 0-3.3-1.445-3.3-3.235 0-1.79 1.475-3.235 3.3-3.235h13.971c.85 0 1.587-.334 2.132-.956l4.116-4.67c.556-.633 1.281-.956 2.143-.956h10.15c1.825 0 3.3 1.446 3.3 3.235 0 1.79-1.475 3.236-3.3 3.236h-13.96c-.85 0-1.587.322-2.143.956l-4.116 4.68c-.556.634-1.282.956-2.132.956H3.312v-.011zM33.6 0h2.222c1.826 0 3.3 1.445 3.3 3.235 0 1.79-1.474 3.235-3.3 3.235H29.79a2.8 2.8 0 0 0-2.144.956l-4.116 4.67c-.556.633-1.293.956-2.143.956H3.3c-1.826 0-3.3-1.446-3.3-3.235C0 8.027 1.474 6.58 3.3 6.58h21.908c.85 0 1.588-.333 2.132-.956L31.456.956A2.795 2.795 0 0 1 33.6 0zM5.534 40H3.31c-1.825 0-3.3-1.445-3.3-3.235 0-1.79 1.475-3.235 3.3-3.235h6.044c.85 0 1.588-.334 2.132-.956l4.117-4.67c.555-.633 1.28-.956 2.143-.956h18.087c1.825 0 3.3 1.446 3.3 3.235 0 1.79-1.475 3.236-3.3 3.236H13.925c-.85 0-1.587.322-2.132.956l-4.116 4.669A2.795 2.795 0 0 1 5.534 40z" fill="#fff"/><path fill-rule="evenodd" clip-rule="evenodd" d="M248.949 32.474V17.779c0-1.128.243-2.266 1.072-3.083.818-.829 1.978-1.072 3.105-1.072h2.332a.542.542 0 0 0 .542-.541v-3.69a.542.542 0 0 0-.542-.542h-3.238c-2.332 0-4.542.607-6.222 2.298-1.68 1.69-2.277 3.911-2.277 6.254v15.071c0 .298.243.542.542.542h4.155a.54.54 0 0 0 .531-.542zM90.197 0a3.287 3.287 0 0 1 3.294 3.293 3.294 3.294 0 0 1-6.587 0A3.287 3.287 0 0 1 90.197 0zm8.013 32.474V1.348c0-.298.243-.541.542-.541h4.133c.298 0 .542.243.542.541v7.845h5.725c.298 0 .541.243.541.542v3.447a.542.542 0 0 1-.541.541h-5.725v18.751a.543.543 0 0 1-.542.542h-4.133a.542.542 0 0 1-.542-.542zm-21.242 0V1.348c0-.298.243-.541.542-.541h4.133c.298 0 .542.243.542.541v31.126a.542.542 0 0 1-.542.542H77.51a.542.542 0 0 1-.542-.542zm10.621 0V9.734c0-.298.243-.54.542-.54h4.133c.298 0 .542.242.542.54v22.74a.542.542 0 0 1-.542.542h-4.133a.542.542 0 0 1-.542-.542zm28.271-13.845h13.638c-.42-1.502-1.171-2.817-2.409-3.8-1.293-1.017-2.796-1.46-4.443-1.46-1.636 0-3.161.443-4.443 1.481-1.216.984-1.956 2.277-2.343 3.78zm-.144 4.31c.299 1.613.995 3.05 2.266 4.132 1.326 1.138 2.94 1.602 4.675 1.602 1.282 0 2.498-.265 3.625-.884a6.74 6.74 0 0 0 2.089-1.812.533.533 0 0 1 .752-.11l3.138 2.287c.122.088.188.21.21.364a.5.5 0 0 1-.11.41 11.712 11.712 0 0 1-2.642 2.518c-2.111 1.47-4.487 2.155-7.062 2.155-3.404 0-6.333-1.15-8.72-3.59-2.409-2.465-3.514-5.47-3.514-8.896 0-2.243.497-4.397 1.591-6.364 1.061-1.9 2.52-3.403 4.399-4.497 1.923-1.116 4.023-1.624 6.244-1.624 2.266 0 4.41.519 6.355 1.69a11.401 11.401 0 0 1 4.299 4.541c1.039 1.967 1.503 4.089 1.503 6.31 0 .43-.033.861-.077 1.281a.549.549 0 0 1-.542.486h-18.479zm-61.35-4.31h13.639c-.42-1.502-1.172-2.817-2.41-3.8-1.293-1.017-2.807-1.46-4.442-1.46-1.647 0-3.161.443-4.443 1.482-1.216.983-1.968 2.276-2.343 3.778zm-.154 4.31c.298 1.613.995 3.05 2.266 4.132 1.326 1.138 2.94 1.602 4.675 1.602 1.282 0 2.497-.265 3.625-.884a6.573 6.573 0 0 0 2.077-1.812.534.534 0 0 1 .752-.11l3.139 2.287c.121.088.188.21.22.364a.498.498 0 0 1-.11.41 11.699 11.699 0 0 1-2.641 2.518c-2.111 1.47-4.487 2.155-7.062 2.155-3.404 0-6.333-1.15-8.72-3.59-2.41-2.465-3.515-5.47-3.515-8.896 0-2.243.497-4.397 1.592-6.364 1.06-1.9 2.52-3.403 4.398-4.497 1.923-1.116 4.023-1.624 6.245-1.624 2.265 0 4.41.519 6.354 1.69a11.409 11.409 0 0 1 4.3 4.541c1.039 1.967 1.492 4.089 1.492 6.31 0 .43-.033.861-.078 1.281a.549.549 0 0 1-.541.486H54.212zm108.498 8.563c-2.001 1.569-4.51 2.088-7.007 2.088-2.531 0-5.029-.564-7.007-2.232-1.238-1.039-2.034-2.298-2.443-3.746a.535.535 0 0 1 .055-.43.527.527 0 0 1 .354-.255l3.946-.85a.55.55 0 0 1 .63.353c.21.619.608 1.138 1.193 1.558.995.718 2.233.94 3.449.94 1.094 0 2.232-.189 3.171-.785.763-.486 1.205-1.15 1.205-2.055a2.03 2.03 0 0 0-.276-1.04 2.485 2.485 0 0 0-.685-.75c-.332-.232-.785-.41-1.172-.53a15.257 15.257 0 0 0-1.392-.377c-.553-.121-1.117-.22-1.68-.32a42.31 42.31 0 0 1-1.713-.32 21.569 21.569 0 0 1-1.669-.42 9.277 9.277 0 0 1-1.68-.619 10.07 10.07 0 0 1-1.393-.862c-.464-.331-.895-.74-1.204-1.226-.321-.497-.542-1.072-.719-1.636a7.163 7.163 0 0 1-.298-2.11c0-2.177.873-3.934 2.586-5.27 1.923-1.503 4.31-2 6.709-2 2.398 0 4.774.53 6.664 2.088 1.216 1.005 1.978 2.243 2.343 3.657a.48.48 0 0 1-.066.42.516.516 0 0 1-.343.243l-3.791.818a.544.544 0 0 1-.63-.387c-.166-.597-.508-1.105-1.061-1.514-.917-.663-2.122-.84-3.227-.84-1.028 0-2.166.166-3.039.74-.686.454-1.072 1.062-1.072 1.901 0 .277.044.564.143.807.111.254.299.442.52.608a7.8 7.8 0 0 0 .751.475c.321.155.708.265 1.05.342.398.089.796.177 1.194.255.453.099.906.165 1.359.243 1.548.265 3.537.607 4.985 1.226 2.475 1.05 3.791 2.94 3.934 5.613.011.188.022.376.022.564-.011 2.32-.884 4.21-2.696 5.635zm33.443.972V1.348c0-.298.243-.541.542-.541h4.133c.299 0 .542.243.542.541v31.126a.542.542 0 0 1-.542.542h-4.133a.542.542 0 0 1-.542-.542zm10.621 0V1.348c0-.298.243-.541.542-.541h4.133c.299 0 .542.243.542.541v31.126a.542.542 0 0 1-.542.542h-4.133a.542.542 0 0 1-.542-.542zm14.324-13.845h13.638c-.42-1.502-1.172-2.817-2.41-3.8-1.293-1.017-2.807-1.46-4.443-1.46-1.635 0-3.16.443-4.442 1.481-1.205.984-1.957 2.277-2.343 3.78zm-.144 4.31c.298 1.613.995 3.05 2.266 4.132 1.326 1.138 2.939 1.602 4.675 1.602 1.282 0 2.497-.265 3.625-.884a6.484 6.484 0 0 0 2.088-1.812.533.533 0 0 1 .752-.11l3.139 2.287a.53.53 0 0 1 .221.364.497.497 0 0 1-.111.41 11.686 11.686 0 0 1-2.641 2.518c-2.111 1.47-4.487 2.155-7.062 2.155-3.404 0-6.333-1.15-8.72-3.59-2.41-2.465-3.515-5.47-3.515-8.896 0-2.243.497-4.397 1.591-6.364 1.062-1.9 2.52-3.403 4.399-4.497 1.923-1.116 4.023-1.624 6.234-1.624 2.265 0 4.409.519 6.354 1.69a11.41 11.41 0 0 1 4.3 4.541c1.039 1.967 1.503 4.089 1.503 6.31 0 .43-.033.861-.078 1.281a.54.54 0 0 1-.541.486h-18.479zm-47.413-4.31h13.638c-.42-1.502-1.172-2.817-2.409-3.8-1.294-1.017-2.808-1.46-4.443-1.46-1.636 0-3.161.443-4.443 1.481-1.216.984-1.957 2.277-2.343 3.78zm-.144 4.31c.298 1.613.995 3.05 2.266 4.132 1.326 1.138 2.939 1.602 4.675 1.602 1.282 0 2.497-.265 3.625-.884a6.738 6.738 0 0 0 2.089-1.812.531.531 0 0 1 .751-.11l3.139 2.287a.53.53 0 0 1 .221.364.507.507 0 0 1-.111.41 11.686 11.686 0 0 1-2.641 2.518c-2.111 1.47-4.487 2.155-7.062 2.155-3.404 0-6.333-1.15-8.72-3.59-2.41-2.465-3.515-5.47-3.515-8.896 0-2.243.497-4.397 1.592-6.364 1.061-1.9 2.519-3.403 4.398-4.497 1.923-1.116 4.023-1.624 6.234-1.624 2.265 0 4.409.519 6.355 1.69a11.415 11.415 0 0 1 4.299 4.541c1.028 1.967 1.492 4.089 1.492 6.31 0 .43-.033.861-.078 1.281a.54.54 0 0 1-.541.486h-18.468z" fill="#fff"/></svg>