<svg width="599" height="656" viewBox="0 0 599 656" fill="none" xmlns="http://www.w3.org/2000/svg"><path d="M550.509 523.92H222.093c-6.499 0-11.792-5.398-11.792-12.025v-17.85c0-5.925-4.726-10.77-10.56-10.77-5.835 0-10.561 4.82-10.561 10.77v11.172c0 6.627-5.293 12.025-11.792 12.025h-2.264c-6.499 0-11.792-5.398-11.792-12.025V215.955a.615.615 0 1 1 1.231 0v289.262c0 5.925 4.726 10.77 10.561 10.77h2.264c5.81 0 10.561-4.82 10.561-10.77v-11.172c0-6.628 5.293-12.025 11.792-12.025s11.791 5.397 11.791 12.025v17.85c0 5.924 4.727 10.77 10.561 10.77h328.416c5.81 0 10.561-4.82 10.561-10.77V394.528c0-6.627 5.293-12.025 11.792-12.025h13.736c5.81 0 10.561-4.82 10.561-10.77V193.486c0-5.925-4.727-10.77-10.561-10.77h-89.483a.615.615 0 0 1-.615-.627c0-.352.271-.628.615-.628h89.483c6.499 0 11.792 5.398 11.792 12.025v178.247c0 6.628-5.293 12.025-11.792 12.025h-13.736c-5.81 0-10.561 4.82-10.561 10.77v117.367c0 6.627-5.293 12.025-11.792 12.025z" fill="#fff"/><path d="M498 424H222.309V249.157c0-88.725-.309-224.086-.309-224.086L498 25v399z" fill="#E2E0E1"/><path opacity=".55" d="M491.202 385.894c-7.675-.853-15.375-1.53-23.074-2.282-5.75-.552-11.476-1.129-17.201-1.882-9.353-1.229-18.805-2.307-28.059-4.214-8.588-1.756-17.053-4.139-25.394-6.873-9.081-2.985-18.015-6.446-26.825-10.209-14.14-6.045-28.182-12.09-41.879-19.114a474.787 474.787 0 0 1-52.811-31.656c-12.388-8.553-24.209-17.834-36.005-27.241-5.799-4.615-11.475-9.406-16.954-14.423v157h275v-37.5c-2.937-.602-3.862-1.104-6.798-1.606z" fill="#E2E0E1"/><path d="M480.89 483.449H238.634c-9.453 0-17.134-7.833-17.134-17.473v-41.348c0-.352.271-.628.615-.628h275.318c.344 0 .615-.002.615.35v41.626c-.024 9.615-7.73 17.473-17.158 17.473zm-258.184-58.194v40.721c0 8.937 7.139 16.217 15.903 16.217h242.257c8.763 0 15.902-7.28 15.902-16.217v-40.721H222.706z" fill="#000"/><path d="M554.05 324.86c-16.543 0-29.984-13.707-29.984-30.578 0-16.87 13.441-30.578 29.984-30.578s29.984 13.708 29.984 30.578c0 16.871-13.466 30.578-29.984 30.578zm0-59.901c-15.853 0-28.753 13.155-28.753 29.323s12.9 29.323 28.753 29.323 28.753-13.155 28.753-29.323-12.9-29.323-28.753-29.323zM542.429 193.535c6.118 0 11.078-5.058 11.078-11.297 0-6.24-4.96-11.298-11.078-11.298-6.118 0-11.077 5.058-11.077 11.298 0 6.239 4.959 11.297 11.077 11.297z" fill="#fff"/><path d="M497.115 25H222.783c-.345 0-.783.352-.783 0l.168-7.495C222.168 7.847 229.839 0 239.281 0h241.964c9.442 0 16.46 7.847 16.46 17.505L498 25c.025.352-.541 0-.885 0zm-273.718-1.258H496.68l-.18-6.237c0-8.954-6.477-16.247-15.23-16.247H239.305c-8.753 0-15.883 7.293-15.883 16.247v6.238h-.025z" fill="#E2E0E1"/><path d="M377.673 464.8h-35.399c-6.066 0-10.997-5.014-10.997-11.224 0-6.211 4.931-11.224 10.997-11.224h35.399c6.066 0 10.996 5.013 10.996 11.224 0 6.21-4.93 11.224-10.996 11.224z" fill="#E2E0E1" stroke="#000"/><path d="M597.746 294.911h-22.377a.615.615 0 0 1-.615-.627c0-.352.271-.628.615-.628h22.377c.345 0 .616.276.616.628a.616.616 0 0 1-.616.627z" fill="#77C5B2"/><path d="M244.102 18.88c2.939-1.241 4.335-4.678 3.118-7.675-1.218-2.998-4.588-4.421-7.527-3.18-2.939 1.242-4.335 4.678-3.117 7.676 1.217 2.997 4.587 4.421 7.526 3.18zM266.024 14.819c.731-3.158-1.186-6.322-4.282-7.067-3.096-.746-6.199 1.21-6.93 4.367-.731 3.157 1.186 6.321 4.282 7.067 3.096.745 6.199-1.21 6.93-4.367zM281.122 18.872c2.939-1.241 4.335-4.678 3.117-7.675-1.217-2.998-4.587-4.421-7.526-3.18-2.94 1.242-4.335 4.679-3.118 7.676 1.218 2.998 4.587 4.421 7.527 3.18z" fill="#fff"/><path d="M571.874 302.886c4.662-4.755 4.662-12.464 0-17.219a11.776 11.776 0 0 0-16.885 0c-4.662 4.755-4.662 12.464 0 17.219a11.776 11.776 0 0 0 16.885 0z" fill="#FBDC28"/><path d="M379.273 132.63c25.257 24.126 59.598 36.302 102.284 36.302 5.244 0 10.929-.606 16.443-.932v-1c-5.465.377-11.224.701-16.443.701-42.366 0-76.436-12.075-101.447-35.95-10.142-9.691-18.783-21.339-25.7-34.67-5.539-10.67-9.994-22.42-13.219-34.922-5.49-21.314-5.46-38.008-5.46-38.159H334.5c0 .15-.03 16.97 5.509 38.436 3.274 12.602 7.73 24.452 13.318 35.197 6.991 13.431 15.706 25.231 25.946 34.997zM446.038 109.75C459.676 120.947 477.863 127.368 498 129v-1.5c-19.866-1.607-37.733-7.707-51.174-18.729-10.733-8.811-19.325-20.61-25.504-35.021-10.56-24.603-10.321-49.499-10.321-49.75h-1.231c0 .251-.239 25.373 10.395 50.227 6.253 14.636 14.968 26.586 25.873 35.523zM306.374 351.257C317.575 374.077 324.301 398.995 326 424h1c-1.699-25.18-8.268-50.35-19.543-73.321-9.034-18.352-21.048-35.85-35.719-51.968-24.987-27.465-48.992-41.56-49.238-41.711v1.354c.246.125 23.513 13.922 48.376 41.236 14.598 16.017 26.537 33.415 35.498 51.667z" fill="#fff"/><path d="M92.5 120.5l58.792 61.335 87.293-40.947 16.985 26.009-89.778 57.391c-14.475 7.13-34.243 9.816-46.773-.452l-46.625-38.311L92.5 120.5z" fill="#0A0A0B"/><rect x="251.5" y="56.158" width="73" height="75" rx="14" transform="rotate(-8.794 251.5 56.158)" fill="#fff"/><path d="M278.293 108.606c-2.585 0-4.849-1.908-5.268-4.595l-3.151-20.26a5.557 5.557 0 0 1 .96-4.067 5.258 5.258 0 0 1 3.496-2.184c2.068-.326 3.495-2.334 3.175-4.443l-.246-1.582c-.32-2.084 1.083-4.067 3.127-4.393l23.115-3.74a3.74 3.74 0 0 1 2.806.677 3.76 3.76 0 0 1 1.502 2.51l.246 1.582c.32 2.109 2.29 3.565 4.357 3.239 2.905-.477 5.662 1.556 6.13 4.519l3.151 20.26a5.55 5.55 0 0 1-.96 4.066 5.259 5.259 0 0 1-3.496 2.185l-38.082 6.175c-.296.026-.591.051-.862.051zm25.774-44.06c-.123 0-.271 0-.394.025l-23.115 3.74c-1.379.227-2.314 1.557-2.092 2.963l.246 1.582c.443 2.812-1.453 5.448-4.185 5.9a4.083 4.083 0 0 0-2.683 1.682 4.236 4.236 0 0 0-.739 3.113l3.151 20.26c.345 2.284 2.462 3.841 4.702 3.489l38.082-6.176a4.079 4.079 0 0 0 2.684-1.682c.64-.903.911-2.008.738-3.113l-3.151-20.26a4.186 4.186 0 0 0-1.649-2.736 4.03 4.03 0 0 0-3.053-.753c-2.757.452-5.342-1.481-5.785-4.268l-.246-1.582a2.555 2.555 0 0 0-1.009-1.682c-.468-.326-.985-.502-1.502-.502z" fill="#000"/><path d="M295.89 98.662c-5.908 0-11.127-4.394-12.087-10.52a12.566 12.566 0 0 1 2.191-9.288c1.92-2.712 4.751-4.469 7.976-4.996 6.672-1.08 12.949 3.565 14.007 10.368 1.059 6.804-3.495 13.206-10.166 14.285-.64.1-1.305.15-1.921.15zm0-23.7c-.566 0-1.157.05-1.747.151-6.007.98-10.093 6.728-9.133 12.854.96 6.126 6.597 10.293 12.604 9.314 6.006-.979 10.093-6.728 9.133-12.854-.837-5.523-5.539-9.464-10.857-9.464z" fill="#000"/><path d="M295.87 93.765a7.289 7.289 0 0 1-4.358-1.456c-1.6-1.18-2.658-2.937-2.978-4.945-.64-4.118 2.117-8.034 6.179-8.687a7.175 7.175 0 0 1 5.538 1.356c1.6 1.18 2.659 2.937 2.979 4.946.32 2.008-.148 4.016-1.329 5.648a7.39 7.39 0 0 1-4.85 3.038c-.394.075-.788.1-1.181.1zm.024-13.908c-.32 0-.665.025-.985.076-3.372.552-5.686 3.79-5.144 7.255.27 1.657 1.132 3.138 2.486 4.117a6.216 6.216 0 0 0 4.628 1.13c1.625-.276 3.077-1.155 4.037-2.536.985-1.38 1.354-3.037 1.108-4.72-.271-1.657-1.133-3.138-2.487-4.117-1.083-.778-2.338-1.205-3.643-1.205zM260.222 72.35a.588.588 0 0 1-.591-.501l-1.132-5.825a.596.596 0 0 1 .492-.728l5.416-1.08a.587.587 0 0 1 .714.503.597.597 0 0 1-.493.728l-4.825.979 1.01 5.222a.597.597 0 0 1-.493.728c0-.05-.049-.025-.098-.025zM317.975 60.728a.633.633 0 0 1-.616-.502l-1.009-5.222-4.825.98a.586.586 0 0 1-.714-.503.596.596 0 0 1 .492-.728l5.416-1.08a.586.586 0 0 1 .714.503L318.566 60a.597.597 0 0 1-.493.728h-.098zM269.183 118.596a.588.588 0 0 1-.591-.502l-1.132-5.825a.596.596 0 0 1 .492-.728.598.598 0 0 1 .714.502l1.009 5.222 4.825-.979a.598.598 0 0 1 .714.502.596.596 0 0 1-.493.728l-5.415 1.08h-.123zM321.493 108.079a.634.634 0 0 1-.616-.502.596.596 0 0 1 .493-.728l4.825-.979-1.009-5.222a.596.596 0 0 1 .492-.728.586.586 0 0 1 .714.502l1.132 5.824a.652.652 0 0 1-.492.753l-5.416 1.08h-.123z" fill="#000"/><path d="M250.328 171.163a.638.638 0 0 1-.517-.276l-17.282-26.762c-.197-.301-.098-.678.173-.879.295-.201.664-.1.861.176l17.281 26.762a.649.649 0 0 1-.172.879.788.788 0 0 1-.344.1z" fill="#fff"/><path d="M259.09 160.344a.6.6 0 0 1-.492-.251c-.197-.276-.148-.678.099-.878l4.283-3.365c.271-.2.665-.15.861.101.197.276.148.678-.098.879l-4.283 3.364a.588.588 0 0 1-.37.15z" fill="#60D2D0"/><path d="M128.792 151.709l46.92-7.029s1.994 4.067-1.846 6.728c0 0 1.428 3.314-2.068 5.272 0 0 1.255 3.339-3.274 5.623l-28.433 6.678-27.62 21.867-6.647-28.871 22.968-10.268z" fill="#fff"/><path d="M82.586 117.641l-25.257 4.745c-5.342.829-11.84 2.912-14.18 9.44l-23.262 119.5 103.342-1.933-23.854-117.969s-4.135-15.716-16.789-13.783z" fill="#0A0A0B"/><path d="M72.986 90.92l9.202-1.393-.096 28.013-.019.04c-.04.084-.103.212-.198.374-.189.324-.5.786-.982 1.314-.962 1.052-2.611 2.374-5.341 3.376-2.645.958-4.97.412-6.655-.387a10.887 10.887 0 0 1-2.496-1.647l6.585-29.69z" fill="#fff" stroke="#000"/><path d="M75.222 102.553a31.436 31.436 0 0 0 4.653 1.933c.911.176 1.822.326 2.733.452l.049-16.017-10.118 1.531-1.797 8.812c1.428 1.205 2.905 2.31 4.48 3.289z" fill="#0A0A0B"/><path d="M88.596 76.146c5.315 5.42 5.315 14.21 0 19.63a13.425 13.425 0 0 1-19.248 0c-5.316-5.42-5.316-14.21 0-19.63a13.424 13.424 0 0 1 19.248 0z" fill="#fff" stroke="#000"/><path d="M85.44 73.183a13.832 13.832 0 0 0-9.6-1.256c-7.608 1.758-12.359 9.465-10.635 17.197.689 3.114 2.314 5.75 4.53 7.683 3.716-2.335 3.864-7.381 3.864-7.381l2.954-5.85c-.025 0 2.88-7.632 8.887-10.393z" fill="#000"/><path d="M74.357 82.832c1.898.434 3.106 2.36 2.676 4.318-.43 1.957-2.33 3.174-4.228 2.74-1.899-.434-3.107-2.361-2.676-4.319.43-1.957 2.33-3.174 4.228-2.74z" fill="#fff" stroke="#000"/><path d="M73.972 86.035c.689.753 1.058 1.556.787 1.808-.246.225-1.01-.201-1.698-.954-.69-.754-1.059-1.557-.788-1.808.246-.226 1.01.2 1.699.954zM89.849 82.722c.221.954.049 1.808-.37 1.908-.418.1-.935-.602-1.132-1.556-.221-.954-.05-1.808.37-1.908.418-.1.91.602 1.132 1.556zM92.506 88.094c-.123 0-.246-.05-.295-.176-.123-.176-.074-.402.098-.528l2.831-1.958-3.274-2.962a.369.369 0 0 1-.025-.527.352.352 0 0 1 .517-.025l3.62 3.263c.073.076.122.201.122.302a.309.309 0 0 1-.172.276l-3.225 2.234a.222.222 0 0 1-.197.1zM105.825 161.952l-58.072 35.524 9.576-75.089c-14.82 1.004-31.116 6.276-37.418 23.272L1.473 214.723c-6.548 25.281 21.91 44.738 42.341 28.972l68.633-52.872-6.622-28.871z" fill="#0A0A0B"/><path d="M181.112 136.387l-.071-.495-.495.074-71.528 10.743-.494.075.071.494.331 2.293.071.495.495-.075 71.528-10.743.494-.074-.071-.495-.331-2.292z" fill="#fff" stroke="#fff"/><path d="M178.188 139.011l-.161.71.72-.104 2.251-.325.34-.049.076-.335 17.518-77.18.163-.716-.726.112-2.251.346-.336.052-.076.332-17.518 77.157z" fill="#fff" stroke="#fff"/><path d="M145.63 156.253a.635.635 0 0 1-.615-.527.604.604 0 0 1 .517-.703l28.235-4.243c.345-.05.64.176.69.528a.606.606 0 0 1-.517.703l-14.106 2.121-14.105 2.121h-.099zM155.083 159.819a.635.635 0 0 1-.615-.527.604.604 0 0 1 .517-.703l16.715-2.511c.344-.05.64.176.689.527a.604.604 0 0 1-.517.703l-16.715 2.511h-.074z" fill="#0A0A0B"/><path d="M44.456 204.706a.49.49 0 0 1-.271-.075c-.296-.151-.419-.527-.27-.854l3.298-6.602a.542.542 0 0 1 .221-.251l58.097-35.524a.601.601 0 0 1 .837.226.625.625 0 0 1-.222.853l-57.924 35.424-3.2 6.452a.651.651 0 0 1-.566.351z" fill="#fff"/><path d="M128.255 173.624a.636.636 0 0 1-.492-.251.625.625 0 0 1 .147-.879l2.659-1.983a.598.598 0 0 1 .862.151.624.624 0 0 1-.148.878l-2.659 1.984a.899.899 0 0 1-.369.1zM132.778 170.237a.638.638 0 0 1-.492-.251.623.623 0 0 1 .148-.878l2.658-1.984a.6.6 0 0 1 .862.151.625.625 0 0 1-.148.879l-2.658 1.983a.687.687 0 0 1-.37.1z" fill="#0A0A0B"/><mask id="a" maskUnits="userSpaceOnUse" x="19" y="118" width="104" height="134"><path d="M81.7 118.165l-25.257 4.745c-5.342.828-11.841 2.912-14.18 9.439L19 251.85l103.343-1.933-23.854-117.97s-4.136-15.715-16.79-13.782z" fill="#0A0A0B"/></mask><path d="M71.633 127.207c-6.77 0-9.453-5.498-9.477-5.573a.616.616 0 0 1 .295-.828.594.594 0 0 1 .813.301c.123.276 3.249 6.527 11.619 4.443 4.456-1.104 6.966-3.288 8.296-4.895 1.452-1.757 1.846-3.264 1.846-3.289.099-.326.418-.527.739-.452.32.076.517.427.443.753-.074.277-1.797 6.779-11.053 9.088-1.28.327-2.462.452-3.52.452z" fill="#fff" mask="url(#a)"/><path d="M47.75 198.103h-.074c-.344-.05-.566-.351-.541-.703l3.89-30.452a.633.633 0 0 1 .688-.553c.345.051.567.352.542.703l-3.914 30.453a.614.614 0 0 1-.59.552zM238.586 141.164l33.208-14.837s7.878-10.77 13.023-11.096c0 0 1.6 1.155-1.157 4.92l-2.068 4.519s9.896-5.121 15.263-9.213c.935-.728 2.289.125 2.043 1.305-.049.176-.099.377-.172.603 0 0 2.24.15 1.993 2.937 0 0 2.758 1.029.837 3.54l-14.056 15.49-31.928 27.841-16.986-26.009zM105.775 161.174a.607.607 0 0 1-.591-.502l-6.376-29.122a.628.628 0 0 1 .468-.753.617.617 0 0 1 .739.477l6.376 29.122a.63.63 0 0 1-.468.753c-.074.025-.099.025-.148.025z" fill="#fff"/><path d="M286.909 133.911a.391.391 0 0 1-.271-.126.37.37 0 0 1 .025-.527l13.786-13.255a.35.35 0 0 1 .516.025.368.368 0 0 1-.024.527l-13.786 13.255a.346.346 0 0 1-.246.101zM283.585 130.571a.452.452 0 0 1-.295-.126.394.394 0 0 1 .049-.527l15.09-12.829a.377.377 0 0 1 .517.05.395.395 0 0 1-.049.528l-15.09 12.828c-.05.025-.148.076-.222.076z" fill="#0A0A0B"/><path d="M283.119 132.705h-.073a.413.413 0 0 1-.296-.452c.813-4.143-1.452-7.331-1.477-7.381a.394.394 0 0 1 .074-.527.376.376 0 0 1 .517.075c.098.151 2.486 3.49 1.6 7.958-.025.201-.172.327-.345.327z" fill="#0A0A0B"/><path d="M81.58 626.849v17.222s36.777.401 38.648 11.824H10.066l1.453-29.046h70.06zM332.325 508.127l13.859 9.867s21.417-30.503 31.658-25.532l-58.835 86.688-25.085-20.109 38.403-50.914z" fill="#000"/><path d="M129.604 273.896s81.408 97.509 99.502 115.961c18.118 18.478 102.949 118.597 102.949 118.597l-38.132 50.587s-20.014-17.022-27.645-32.085c-7.632-15.063-18.118-18.477-26.217-25.281-8.099-6.803-15.263-28.193-20.014-29.649-4.776-1.456-30.501-23.825-39.806-36.929-9.305-13.13-94.406-106.898-94.406-106.898s17.896 111.266 16.468 122.94c-1.427 11.674-20.727 175.711-20.727 175.711h-70.06s.713-21.515 4.652-36.453c3.939-14.938-.714-40.469-1.083-50.662-.37-10.218 20.728-44.11 18.586-64.52-1.6-15.164-23.288-133.535-15.73-191.829 2.683-20.611 1.92-32.034 1.92-32.034l103.342-1.933 6.401 24.477z" fill="#fff"/><path d="M112.47 190.823l-73.605 55.96s-8.148 4.217-18.389 1.556l-.566 2.963 47.954-.904s-.541-8.762 7.311-12.578c7.853-3.816 12.752-9.264 15.559-13.557 2.806-4.293 22.056-26.812 22.056-26.812l-.32-6.628z" fill="#0A0A0B"/><path d="M117.939 223.838c-.296 0-.542-.201-.616-.527l-5.465-30.779c-.049-.352.173-.678.493-.728.344-.05.664.176.714.502l5.465 30.779c.049.351-.173.678-.493.728-.024.025-.074.025-.098.025z" fill="#fff"/><path d="M49.7 627.477h-.05a.62.62 0 0 1-.565-.678c.073-1.029 8.69-102.504 16.665-124.17 7.853-21.289 10.61-61.783 10.364-71.148-.221-8.41-31.928-178.321-32.248-180.029a.597.597 0 0 1 .492-.728.587.587 0 0 1 .714.503c1.305 7.004 32.052 171.719 32.273 180.229.246 9.415-2.535 50.16-10.438 71.625-7.926 21.515-16.493 122.815-16.591 123.844-.05.301-.32.552-.616.552z" fill="#000"/><path d="M85.861 328.801h-.123a.638.638 0 0 1-.492-.728l6.942-37.532a.614.614 0 0 1 .615-.502h5.588c.345 0 .616.276.616.628 0 .351-.271.627-.616.627h-5.095l-6.844 37.03c-.05.277-.32.477-.59.477z" fill="#fff"/><path d="M89.665 346.099l13.294 95.826s1.452 18.477-1.994 28.971l-18.39 155.953H66.157s6.696-7.983 11.57-43.181c4.874-35.197-2.117-61.833 3.004-71.348 5.12-9.515 14.524-57.566 12.382-63.742-2.117-6.201 1.33-74.613-3.447-102.479zM137.828 283.763s57.112 82.52 71.562 101.073c14.45 18.553 79.685 87.491 84.535 101.651 4.825 14.134 16.666 50.461 10.315 58.896l27.817-36.879S245.651 405.497 237.38 397.69c-8.272-7.808-99.552-113.927-99.552-113.927z" fill="#000"/><path d="M320.877 523.916a.626.626 0 0 1-.443-.175c-.812-.829-80.202-82.446-91.255-92.463l-1.551-1.406c-12.777-11.573-46.699-42.277-68.165-68.436-22.106-26.913-67.303-66.303-67.77-66.705a.617.617 0 0 1-.075-.878.59.59 0 0 1 .862-.075c.443.401 45.738 39.841 67.918 66.854 21.417 26.085 55.29 56.763 68.042 68.286l1.551 1.406c11.078 10.042 90.492 91.684 91.305 92.513.246.251.246.653 0 .878-.099.151-.271.201-.419.201z" fill="#000"/><path d="M81.603 638.521H11.518a.616.616 0 0 1-.616-.628c0-.351.271-.627.616-.627h70.06c.345 0 .615.276.615.627 0 .352-.27.628-.59.628zM306.503 569.76a.489.489 0 0 1-.32-.1c-.295-.176-.369-.578-.197-.879l34.193-55.005c.172-.302.566-.377.862-.201.295.176.369.577.197.878l-34.193 55.006a.614.614 0 0 1-.542.301z" fill="#fff"/><path d="M205.549 156.68s-45.073 32.812-49.431 32.059c-4.357-.728-4.258-6.879-4.258-6.879l53.689-25.18z" fill="#000"/><path d="M155.086 186.506c-.148 0-.32-.051-.419-.176l-3.791-3.766a.616.616 0 0 1 0-.879.588.588 0 0 1 .862 0l3.791 3.766a.616.616 0 0 1-.443 1.055zM437.122 123.642h-45.984c-7.706 0-13.958-6.402-13.958-14.235V62.511c0-7.858 6.277-14.235 13.958-14.235h45.984c7.705 0 13.958 6.402 13.958 14.235v46.896c0 7.833-6.253 14.235-13.958 14.235zm-45.984-74.135c-7.016 0-12.727 5.824-12.727 12.979v46.896c0 7.155 5.711 12.98 12.727 12.98h45.984c7.016 0 12.727-5.825 12.727-12.98V62.511c0-7.155-5.711-12.98-12.727-12.98h-45.984v-.024zM437.122 260.892h-45.984c-7.706 0-13.958-6.402-13.958-14.235v-46.896c0-7.858 6.277-14.235 13.958-14.235h45.984c7.705 0 13.958 6.402 13.958 14.235v46.896c0 7.858-6.253 14.235-13.958 14.235zm-45.984-74.11c-7.016 0-12.727 5.824-12.727 12.979v46.896c0 7.155 5.711 12.98 12.727 12.98h45.984c7.016 0 12.727-5.825 12.727-12.98v-46.896c0-7.155-5.711-12.979-12.727-12.979h-45.984zM321.669 260.892h-45.985c-7.705 0-13.957-6.402-13.957-14.235v-46.896c0-7.858 6.277-14.235 13.957-14.235h45.985c7.705 0 13.958 6.402 13.958 14.235v46.896c.025 7.858-6.253 14.235-13.958 14.235zm-45.985-74.11c-7.015 0-12.727 5.824-12.727 12.979v46.896c0 7.155 5.712 12.98 12.727 12.98h45.985c7.016 0 12.727-5.825 12.727-12.98v-46.896c0-7.155-5.711-12.979-12.727-12.979h-45.985zM321.669 383.78h-45.985c-7.705 0-13.957-6.402-13.957-14.235v-46.896c0-7.858 6.277-14.235 13.957-14.235h45.985c7.705 0 13.958 6.402 13.958 14.235v46.896c.025 7.858-6.253 14.235-13.958 14.235zm-45.985-74.111c-7.015 0-12.727 5.825-12.727 12.98v46.896c0 7.155 5.712 12.979 12.727 12.979h45.985c7.016 0 12.727-5.824 12.727-12.979v-46.896c0-7.155-5.711-12.98-12.727-12.98h-45.985zM437.122 383.78h-45.984c-7.706 0-13.958-6.402-13.958-14.235v-46.896c0-7.858 6.277-14.235 13.958-14.235h45.984c7.705 0 13.958 6.402 13.958 14.235v46.896c0 7.858-6.253 14.235-13.958 14.235zm-45.984-74.111c-7.016 0-12.727 5.825-12.727 12.98v46.896c0 7.155 5.711 12.979 12.727 12.979h45.984c7.016 0 12.727-5.824 12.727-12.979v-46.896c0-7.155-5.711-12.98-12.727-12.98h-45.984z" fill="#fff"/><path d="M424.887 107.15h-30.205a.616.616 0 0 1-.616-.627V67.509c0-.175.074-.351.197-.477l10.044-9.038c.123-.1.246-.15.419-.15h20.136c.345 0 .616.276.616.627v48.052a.581.581 0 0 1-.591.627zm-29.59-1.255h28.974V59.099h-19.299l-9.675 8.686v38.11z" fill="#000"/><path d="M433.574 114.529h-30.205a.615.615 0 0 1-.615-.627v-7.381a.616.616 0 1 1 1.231 0v6.753h28.974V66.478h-8.074a.616.616 0 0 1-.616-.628c0-.351.271-.627.616-.627h8.689c.345 0 .616.276.616.627v48.052a.616.616 0 0 1-.616.627zM404.751 68.261h-10.044c-.246 0-.492-.15-.566-.401a.63.63 0 0 1 .172-.703l10.044-9.138c.172-.176.443-.201.665-.1.221.1.369.326.369.577v9.138c-.025.351-.295.627-.64.627zm-8.444-1.255h7.829v-7.105l-7.829 7.105zM417.233 73.056h-17.528a.616.616 0 0 1-.615-.628c0-.351.271-.627.615-.627h17.528c.344 0 .615.276.615.627a.616.616 0 0 1-.615.628z" fill="#000"/><path d="M417.233 78.604h-17.528a.616.616 0 0 1-.615-.628c0-.351.271-.627.615-.627h17.528c.344 0 .615.276.615.627a.616.616 0 0 1-.615.628zM417.233 84.154h-17.528a.616.616 0 0 1-.615-.628c0-.351.271-.628.615-.628h17.528c.344 0 .615.277.615.628a.616.616 0 0 1-.615.628zM417.233 99.366h-17.528a.616.616 0 0 1-.615-.628c0-.352.271-.628.615-.628h17.528c.344 0 .615.276.615.628a.616.616 0 0 1-.615.628zM302.858 248.841h-8.37c-1.28 0-2.338-1.079-2.338-2.385v-3.414a1.11 1.11 0 0 0-.714-1.055c-.222-.1-.443-.175-.665-.276a1.074 1.074 0 0 0-1.231.226l-2.363 2.41c-.911.929-2.388.929-3.323 0l-5.908-6.025c-.911-.929-.911-2.435 0-3.389l2.363-2.41c.32-.327.418-.829.221-1.255-.098-.226-.197-.452-.27-.678-.173-.452-.567-.728-1.034-.728h-3.348c-1.28 0-2.339-1.08-2.339-2.385v-8.536c0-1.306 1.059-2.385 2.339-2.385h3.348c.467 0 .861-.276 1.034-.728.098-.226.172-.452.27-.678a1.126 1.126 0 0 0-.221-1.255l-2.363-2.41a2.398 2.398 0 0 1 0-3.364l5.908-6.026c.91-.929 2.387-.929 3.323 0l2.363 2.41c.32.327.812.427 1.231.226.222-.1.443-.2.665-.276.443-.175.714-.577.714-1.054v-3.414c0-1.306 1.058-2.385 2.338-2.385h8.37c1.28 0 2.339 1.079 2.339 2.385v3.414c0 .477.27.879.713 1.054.222.101.444.176.665.276.419.201.911.101 1.231-.226l2.363-2.41c.911-.929 2.388-.929 3.323 0l5.909 6.026a2.398 2.398 0 0 1 0 3.364l-2.364 2.41c-.32.326-.418.828-.221 1.255.098.226.197.452.271.678.172.452.566.728 1.033.728h3.348c1.28 0 2.339 1.079 2.339 2.385v8.536c0 1.305-1.059 2.385-2.339 2.385h-3.348c-.467 0-.861.276-1.033.728-.099.226-.173.452-.271.678-.197.426-.099.928.221 1.255l2.364 2.41c.91.929.91 2.435 0 3.389l-5.909 6.025c-.91.929-2.387.929-3.323 0l-2.363-2.41a1.074 1.074 0 0 0-1.231-.226 7.087 7.087 0 0 1-.665.276 1.11 1.11 0 0 0-.713 1.055v3.414c0 1.331-1.034 2.385-2.339 2.385zm-12.53-8.485c.32 0 .64.075.96.2.197.101.418.176.615.277.911.351 1.502 1.23 1.502 2.234v3.414c0 .628.492 1.13 1.108 1.13h8.37c.615 0 1.107-.502 1.107-1.13v-3.414c0-.979.591-1.858 1.502-2.234.222-.076.418-.176.615-.277a2.31 2.31 0 0 1 2.61.503l2.363 2.41a1.084 1.084 0 0 0 1.575 0l5.909-6.026a1.136 1.136 0 0 0 0-1.606l-2.364-2.41a2.416 2.416 0 0 1-.492-2.662c.098-.2.172-.426.271-.627a2.323 2.323 0 0 1 2.191-1.532h3.348c.615 0 1.107-.502 1.107-1.129v-8.536c0-.628-.492-1.13-1.107-1.13h-3.348c-.96 0-1.822-.602-2.191-1.531-.074-.226-.173-.427-.271-.628a2.423 2.423 0 0 1 .492-2.661l2.364-2.41c.221-.226.32-.502.32-.803 0-.302-.123-.578-.32-.804l-5.909-6.025a1.084 1.084 0 0 0-1.575 0l-2.363 2.41a2.3 2.3 0 0 1-2.61.502c-.197-.1-.418-.176-.615-.276-.911-.351-1.502-1.23-1.502-2.234v-3.415c0-.627-.492-1.129-1.107-1.129h-8.37c-.616 0-1.108.502-1.108 1.129v3.415c0 .979-.591 1.857-1.502 2.234-.221.075-.418.176-.615.276a2.307 2.307 0 0 1-2.609-.502l-2.364-2.41a1.084 1.084 0 0 0-1.575 0l-5.908 6.025c-.222.226-.32.502-.32.804 0 .301.123.577.32.803l2.363 2.41c.689.703.886 1.732.492 2.661-.098.201-.172.427-.27.628a2.324 2.324 0 0 1-2.191 1.531h-3.348c-.616 0-1.108.502-1.108 1.13v8.536c0 .627.492 1.129 1.108 1.129h3.348c.96 0 1.821.603 2.191 1.532.073.226.172.427.27.627a2.424 2.424 0 0 1-.492 2.662l-2.363 2.41a1.136 1.136 0 0 0 0 1.606l5.908 6.026a1.084 1.084 0 0 0 1.575 0l2.364-2.41a2.305 2.305 0 0 1 1.649-.703zm8.345-2.913c-7.705 0-13.958-6.401-13.958-14.234s6.278-14.235 13.958-14.235c7.705 0 13.958 6.402 13.958 14.235 0 7.833-6.253 14.234-13.958 14.234zm0-27.214c-7.016 0-12.727 5.825-12.727 12.98s5.711 12.979 12.727 12.979 12.727-5.824 12.727-12.979c0-7.155-5.686-12.98-12.727-12.98zm0 22.871c-5.342 0-9.699-4.443-9.699-9.891s4.357-9.892 9.699-9.892 9.699 4.444 9.699 9.892c0 5.448-4.332 9.891-9.699 9.891zm0-18.527c-4.677 0-8.468 3.866-8.468 8.636s3.791 8.636 8.468 8.636 8.468-3.866 8.468-8.636-3.791-8.636-8.468-8.636z" fill="#000"/><path d="M415.854 246.933c-2.019 0-4.062-.276-6.081-.829a.66.66 0 0 1-.443-.778.646.646 0 0 1 .763-.452c5.687 1.557 11.62.779 16.715-2.234 5.096-2.988 8.739-7.833 10.266-13.632 1.526-5.799.763-11.85-2.191-17.047-2.93-5.196-7.681-8.912-13.367-10.468-11.743-3.214-23.854 3.891-27.005 15.866a.646.646 0 0 1-.763.452.66.66 0 0 1-.443-.778c3.323-12.628 16.124-20.135 28.506-16.745 6.007 1.656 11.004 5.573 14.106 11.071 3.101 5.498 3.914 11.875 2.314 18-1.625 6.126-5.465 11.222-10.856 14.386-3.521 2.133-7.484 3.188-11.521 3.188z" fill="#fff"/><path d="M415.854 246.933c-2.019 0-4.062-.276-6.081-.829a.66.66 0 0 1-.443-.778.646.646 0 0 1 .763-.452c5.687 1.557 11.62.779 16.715-2.234 5.096-2.988 8.739-7.833 10.266-13.632 1.526-5.799.763-11.85-2.191-17.047-2.93-5.196-7.681-8.912-13.367-10.468-11.743-3.214-23.854 3.891-27.005 15.866a.646.646 0 0 1-.763.452.66.66 0 0 1-.443-.778c3.323-12.628 16.124-20.135 28.506-16.745 6.007 1.656 11.004 5.573 14.106 11.071 3.101 5.498 3.914 11.875 2.314 18-1.625 6.126-5.465 11.222-10.856 14.386-3.521 2.133-7.484 3.188-11.521 3.188z" fill="#000"/><path d="M415.78 246.933c-5.047 0-9.945-1.682-14.032-4.845-4.948-3.841-8.123-9.415-8.96-15.691a.62.62 0 0 1 .516-.703.615.615 0 0 1 .69.527c.788 5.95 3.815 11.222 8.493 14.862 4.677 3.641 10.462 5.197 16.296 4.394.345-.05.64.201.689.527a.621.621 0 0 1-.517.703 22.45 22.45 0 0 1-3.175.226zM393.846 218.765a.64.64 0 0 1-.516-.276l-4.308-6.653a.649.649 0 0 1 .172-.879c.295-.201.665-.1.861.176l3.988 6.176 6.327-3.59c.295-.176.665-.05.837.251.172.301.049.678-.246.853l-6.819 3.867a.579.579 0 0 1-.296.075zM412.187 237.043a.561.561 0 0 1-.345-.1.644.644 0 0 1-.147-.879l8.345-12.226h-9.084a.565.565 0 0 1-.541-.352.622.622 0 0 1 .073-.653l10.266-13.757a.613.613 0 0 1 .861-.126c.271.201.32.603.123.879l-9.502 12.728h9.01c.222 0 .443.126.542.327a.627.627 0 0 1-.05.652l-9.009 13.206c-.173.201-.345.301-.542.301zM298.672 359.179a4.262 4.262 0 0 1-3.052-1.28l-15.755-16.067a4.41 4.41 0 0 1-1.256-3.113c0-1.18.443-2.285 1.256-3.114l15.755-16.067c1.674-1.707 4.406-1.707 6.105 0l15.755 16.067a4.414 4.414 0 0 1 1.255 3.114 4.414 4.414 0 0 1-1.255 3.113l-15.755 16.067a4.264 4.264 0 0 1-3.053 1.28zm0-39.666c-.788 0-1.575.301-2.191.929l-15.755 16.067a3.182 3.182 0 0 0 0 4.444l15.755 16.067a3.035 3.035 0 0 0 4.358 0l15.754-16.067a3.18 3.18 0 0 0 0-4.444l-15.754-16.067a2.951 2.951 0 0 0-2.167-.929z" fill="#000"/><path d="M298.672 375.75a4.259 4.259 0 0 1-3.052-1.281l-15.755-16.067a4.409 4.409 0 0 1-1.256-3.113c0-1.18.443-2.285 1.256-3.113l15.755-16.068c1.674-1.707 4.406-1.707 6.105 0l15.755 16.068a4.41 4.41 0 0 1 1.255 3.113c0 1.18-.443 2.284-1.255 3.113l-15.755 16.067a4.26 4.26 0 0 1-3.053 1.281zm-2.166-2.159a3.034 3.034 0 0 0 4.357 0l15.755-16.068a3.18 3.18 0 0 0 0-4.443l-15.755-16.068a3.034 3.034 0 0 0-4.357 0l-15.755 16.068a3.14 3.14 0 0 0-.911 2.234c0 .854.32 1.632.911 2.234l15.755 16.043z" fill="#000"/><path d="M151.295 223.207s16.715-4.167 15.164-9.264c-1.55-5.121-21.86 11.398-15.164 9.264zM41.232 197.477s-7.114 6.602-9.33 4.217c-2.043-2.209 9.97-8.837 9.33-4.217z" fill="#fff"/><path d="M435.499 366.109h-42.735c-2.191 0-3.963-1.807-3.963-4.041V326.87c0-2.234 1.772-4.042 3.963-4.042h12.703c1.821 0 3.397 1.255 3.84 3.038l1.058 4.218c.32 1.23 1.403 2.108 2.659 2.108h22.5c2.191 0 3.963 1.808 3.963 4.042v25.834c-.024 2.234-1.797 4.041-3.988 4.041zm-42.735-42.001c-1.502 0-2.732 1.256-2.732 2.787v35.198c0 1.531 1.23 2.786 2.732 2.786h42.735c1.502 0 2.733-1.255 2.733-2.786v-25.834c0-1.531-1.231-2.786-2.733-2.786h-22.5c-1.821 0-3.397-1.256-3.84-3.038l-1.058-4.218c-.32-1.23-1.404-2.109-2.659-2.109h-12.678z" fill="#000"/><path d="M438.847 357.697h-49.431a.616.616 0 0 1-.615-.628c0-.351.271-.628.615-.628h49.431c.345 0 .616.277.616.628a.616.616 0 0 1-.616.628z" fill="#000"/></svg>