<svg width="139" height="51" viewBox="0 0 139 51" fill="none" xmlns="http://www.w3.org/2000/svg"><path d="M81.098 19.273h-.447c-.112.287-.28.574-.503.804-.168.286-.447.516-.727.688-.279.172-.67.344-1.061.459-.391.115-.894.172-1.51.172-.726 0-1.452-.115-2.067-.402a4.542 4.542 0 0 1-1.677-1.204c-.502-.517-.838-1.205-1.117-2.008-.28-.803-.391-1.664-.391-2.696v-.46c0-.975.167-1.893.447-2.696a5.89 5.89 0 0 1 1.173-2.007c.503-.517 1.062-.976 1.733-1.263.67-.286 1.34-.401 2.067-.401.95 0 1.733.172 2.292.574a4.17 4.17 0 0 1 1.34 1.606h.448V3.555h3.074v17.554h-3.074v-1.836zm-3.241-.86c.95 0 1.732-.287 2.347-.918s.894-1.434.894-2.467v-.287c0-1.032-.28-1.835-.894-2.466-.615-.631-1.397-.918-2.347-.918s-1.733.287-2.347.918c-.615.63-.895 1.434-.895 2.466v.287c0 1.033.28 1.893.895 2.467.614.631 1.397.918 2.347.918zm12.071-2.524c0 .344.111.688.279 1.033.168.286.391.573.615.803.28.23.559.401.95.516.335.115.726.172 1.117.172.783 0 1.342-.115 1.733-.401.391-.287.726-.631.894-.976l2.627 1.492a4.695 4.695 0 0 1-.615.975c-.28.344-.615.631-1.006.918-.391.287-.894.516-1.509.688a7.523 7.523 0 0 1-2.068.287 7.26 7.26 0 0 1-2.514-.459 5.658 5.658 0 0 1-1.956-1.32c-.56-.573-.95-1.261-1.286-2.064a8.336 8.336 0 0 1-.447-2.754v-.172c0-.975.168-1.836.503-2.582.335-.803.727-1.434 1.285-2.008a5.054 5.054 0 0 1 1.956-1.262 6.422 6.422 0 0 1 2.403-.459c1.062 0 1.956.173 2.683.574.726.402 1.341.86 1.844 1.434a5.295 5.295 0 0 1 1.062 1.893c.223.689.335 1.377.335 2.008v1.664h-8.885zm2.906-4.704c-.783 0-1.398.23-1.9.63-.504.402-.783.861-.95 1.435h5.7c-.112-.574-.391-1.09-.894-1.434-.503-.46-1.174-.631-1.956-.631zm7.15-2.525h3.298l2.85 10.9h.447l2.85-10.9h3.297l-3.409 12.449h-5.868L99.984 8.66zM75.787 32.814c0 .401.224.688.615.86.391.172 1.174.344 2.236.46 1.23.114 2.235.515 3.017 1.146.783.631 1.174 1.492 1.174 2.64v.172c0 1.262-.447 2.237-1.341 2.983-.894.745-2.124 1.09-3.689 1.09-.95 0-1.732-.115-2.403-.402a5.877 5.877 0 0 1-1.676-.918c-.447-.401-.783-.803-1.006-1.262a7.915 7.915 0 0 1-.503-1.32l2.85-.975c.112.517.391.976.838 1.377.391.402 1.062.574 1.9.574.783 0 1.286-.115 1.565-.344.28-.23.447-.517.447-.803 0-.173-.056-.345-.112-.46-.055-.114-.223-.286-.39-.401a2.061 2.061 0 0 0-.783-.287c-.335-.057-.727-.172-1.23-.172-1.34-.115-2.459-.459-3.24-1.09-.783-.631-1.23-1.492-1.23-2.696v-.172c0-.631.111-1.148.39-1.607.28-.459.616-.86 1.007-1.204a4.392 4.392 0 0 1 1.453-.746c.559-.172 1.117-.23 1.732-.23a6.82 6.82 0 0 1 2.012.287 5 5 0 0 1 1.453.746c.391.287.727.631.95 1.033.224.401.447.745.559 1.09l-2.794 1.147c-.168-.459-.391-.803-.783-1.09-.335-.287-.838-.402-1.397-.402-.503 0-.894.115-1.173.287-.336.172-.448.402-.448.689zm18.221 7.112c-.335.803-.782 1.32-1.341 1.664-.559.344-1.285.516-2.068.516-.726 0-1.397-.115-2.068-.402-.67-.286-1.229-.688-1.676-1.262a5.895 5.895 0 0 1-1.174-2.008 7.99 7.99 0 0 1-.447-2.696v-.401c0-.976.112-1.894.392-2.64.279-.803.67-1.434 1.117-2.007a4.323 4.323 0 0 1 1.62-1.262 4.717 4.717 0 0 1 2.013-.46c.838 0 1.564.173 2.067.46.503.287.95.745 1.23 1.377h.447v-1.492h3.074v8.662c0 .517.223.746.67.746h.447v2.983h-2.123c-.56 0-1.006-.172-1.341-.516-.336-.344-.503-.746-.503-1.32h-.336v.058zm-2.738-.86c.894 0 1.62-.287 2.124-.918.558-.631.782-1.435.782-2.467v-.287c0-1.033-.28-1.893-.782-2.467-.56-.63-1.23-.918-2.124-.918-.894 0-1.62.287-2.124.918-.559.631-.782 1.434-.782 2.467v.287c0 1.032.28 1.893.782 2.467.503.63 1.23.917 2.124.917zm8.941-.345h4.247v-11.53h-4.079v-2.984h7.153v14.514h3.968v2.984h-11.289v-2.983zm16.319-5.907c0 .401.223.688.614.86.392.172 1.174.344 2.236.46 1.229.114 2.235.515 3.018 1.146.782.631 1.173 1.492 1.173 2.64v.172c0 1.262-.447 2.237-1.341 2.983-.894.745-2.124 1.09-3.688 1.09-.95 0-1.733-.115-2.403-.402a5.874 5.874 0 0 1-1.677-.918c-.447-.401-.782-.803-1.006-1.262a7.977 7.977 0 0 1-.503-1.32l2.85-.975c.112.517.391.976.838 1.377.392.402 1.062.574 1.901.574.782 0 1.285-.115 1.564-.344.28-.23.447-.517.447-.803 0-.173-.055-.345-.111-.46-.056-.114-.224-.286-.392-.401-.167-.115-.447-.23-.782-.287-.335-.057-.726-.172-1.229-.172-1.342-.115-2.459-.459-3.242-1.09-.782-.631-1.229-1.492-1.229-2.696v-.172c0-.631.112-1.148.391-1.607.279-.459.615-.86 1.006-1.204a4.391 4.391 0 0 1 1.453-.746c.559-.172 1.118-.23 1.732-.23.783 0 1.453.115 2.012.287a4.995 4.995 0 0 1 1.453.746c.391.287.727.631.95 1.033.224.401.447.745.559 1.09l-2.794 1.147c-.168-.459-.391-.803-.783-1.09-.335-.287-.838-.402-1.397-.402-.503 0-.894.115-1.173.287-.336.172-.447.402-.447.689zm17.771 7.112c-.335.803-.782 1.32-1.341 1.664-.559.344-1.285.516-2.068.516-.726 0-1.397-.115-2.067-.402-.671-.286-1.23-.688-1.677-1.262a5.902 5.902 0 0 1-1.174-2.008 8 8 0 0 1-.447-2.696v-.401c0-.976.112-1.894.392-2.64.279-.803.67-1.434 1.117-2.007a4.318 4.318 0 0 1 1.621-1.262 4.717 4.717 0 0 1 2.012-.46c.838 0 1.564.173 2.067.46.503.287.95.745 1.23 1.377h.447v-1.492h3.074v8.662c0 .517.223.746.67.746h.447v2.983h-2.123c-.559 0-1.006-.172-1.342-.516-.335-.344-.503-.746-.503-1.32h-.335v.058zm-2.682-.86c.894 0 1.62-.287 2.123-.918.559-.631.783-1.435.783-2.467v-.287c0-1.033-.28-1.893-.783-2.467-.559-.63-1.229-.918-2.123-.918-.894 0-1.621.287-2.124.918-.559.631-.782 1.434-.782 2.467v.287c0 1.032.279 1.893.782 2.467.503.63 1.23.917 2.124.917z" fill="#fff"/><path d="M45.28 22.718l-6.09-6.368h16.765v-5.91H39.19l6.203-6.252L41.312 0 28.18 13.367l2.85 2.983h.056l1.117 1.205h.056l8.942 9.293 4.08-4.13zM11.189 2.926l-.056.057-1.174 1.205-9.053 9.179 4.024 4.188 6.203-6.253v13.997h5.756V11.302l6.091 6.367 4.08-4.188L14.039 0l-2.85 2.926zM56.79 34.65h-.056l-1.118-1.204h-.056l-8.941-9.294-4.08 4.188 6.092 6.31H32.312v5.91h16.319l-6.203 6.253L46.508 51 59.64 37.633l-2.85-2.983zm-33.754-1.205L16.833 39.7V27.192h-5.756V39.7l-6.091-6.37-4.08 4.188L13.927 51 27.06 37.633l-4.024-4.188z" fill="#D33C5D"/></svg>