<svg width="250" height="57" viewBox="0 0 250 57" fill="none" xmlns="http://www.w3.org/2000/svg"><path d="M10.304 47.887H5.392a5.507 5.507 0 0 1-3.821-1.553A5.162 5.162 0 0 1 0 42.619V24.708a.598.598 0 0 1 0-.088v-3.816c0-.481 2.601-3.082 6.321-6.33l.213.262c.109.147.23.286.36.415a29.8 29.8 0 0 0 3.644 2.798 4.299 4.299 0 0 0 1.138 2.152 4.52 4.52 0 0 0 2.15 1.23 4.63 4.63 0 0 0 2.496-.073 4.497 4.497 0 0 0 2.07-1.353 4.28 4.28 0 0 0 1.001-2.215 4.223 4.223 0 0 0-.375-2.39 4.39 4.39 0 0 0-1.637-1.827 4.594 4.594 0 0 0-2.391-.696 4.95 4.95 0 0 0-.804.07 28.351 28.351 0 0 1-2.745-2.068 1.82 1.82 0 0 1-.171-.197c-.032-.039-.064-.083-.095-.118.533-.437.948-.743 1.304-1.01h.023c1.237-.935 1.856-1.407 2.483-1.407.628 0 1.215.437 2.515 1.425 4.293 3.266 12.407 9.837 12.402 11.314v21.86a5.162 5.162 0 0 1-1.568 3.712 5.507 5.507 0 0 1-3.818 1.555h-4.515l-2.709-9.556a4.956 4.956 0 0 0 2.37-2.267c.5-.994.636-2.124.386-3.203a4.852 4.852 0 0 0-1.764-2.735 5.133 5.133 0 0 0-3.143-1.068 5.14 5.14 0 0 0-3.143 1.068 4.852 4.852 0 0 0-1.764 2.735 4.731 4.731 0 0 0 .387 3.203 4.956 4.956 0 0 0 2.369 2.267l-2.71 9.556.023-.026z" fill="#fff"/><path d="M14.623 18.549c-.31 0-.613-.088-.872-.254-.428-.28-4.235-2.745-5.657-4.127-3.612-3.497-3.706-9.071-.225-12.442C9.178.458 11.48-.766 14.979.598c1.892.735 3.928 2.151 6.05 4.206 1.459 1.412 2.822 2.09 3.95 1.976a3.028 3.028 0 0 0 1.965-1.163 1.55 1.55 0 0 1 .429-.429 1.608 1.608 0 0 1 1.182-.246 1.566 1.566 0 0 1 1.016.636 1.507 1.507 0 0 1 .255 1.145 1.504 1.504 0 0 1-.228.555 6.034 6.034 0 0 1-1.86 1.719 6.245 6.245 0 0 1-2.424.826c-2.136.223-4.334-.74-6.52-2.855-1.806-1.749-3.521-2.96-4.993-3.533-2.059-.813-3.047-.174-3.698.455-2.257 2.186-2.149 5.819.226 8.114 1.02.988 4.063 3.039 5.174 3.742.282.183.496.449.61.758.114.31.123.646.024.96-.099.314-.3.59-.572.785-.273.195-.603.3-.942.3zM65.225 47.09h-7.852l-4.718-7.558a23.943 23.943 0 0 0-1.016-1.54 9.003 9.003 0 0 0-.984-1.158 3.9 3.9 0 0 0-1.038-.739 2.691 2.691 0 0 0-1.174-.253h-1.842V47.09h-6.835V17.703H50.6c7.365 0 11.048 2.664 11.048 7.992.01.967-.155 1.93-.488 2.841a7.836 7.836 0 0 1-1.354 2.344 8.691 8.691 0 0 1-2.15 1.805c-.872.52-1.816.92-2.803 1.19v.083a4.34 4.34 0 0 1 1.31.664c.442.321.853.681 1.227 1.075.403.417.781.855 1.134 1.312.36.472.686.936.984 1.386l5.716 8.695zM46.6 22.665v8.175h2.966a5.009 5.009 0 0 0 3.53-1.228 4.111 4.111 0 0 0 1.02-1.407 3.996 3.996 0 0 0 .335-1.688c0-2.57-1.586-3.855-4.758-3.852H46.6zm38.757 15.774h-14.14c.226 3.045 2.208 4.568 5.946 4.568a11.903 11.903 0 0 0 6.29-1.64v4.674c-2.005 1.04-4.609 1.56-7.812 1.557-3.497 0-6.213-.939-8.149-2.816-1.935-1.877-2.901-4.5-2.898-7.869 0-3.497 1.044-6.257 3.133-8.28a10.464 10.464 0 0 1 3.522-2.306 10.739 10.739 0 0 1 4.18-.755c3.16 0 5.605.908 7.332 2.724 1.728 1.816 2.593 4.283 2.596 7.402v2.74zm-6.203-3.974c0-3.008-1.255-4.512-3.765-4.512a3.708 3.708 0 0 0-1.546.352 3.593 3.593 0 0 0-1.24.96 5.763 5.763 0 0 0-1.427 3.217l7.978-.017zm16.52 10.181h-.085v2.44h-6.687V16.02h6.687v13.237h.085a7.837 7.837 0 0 1 3.012-2.756 8.149 8.149 0 0 1 4.036-.912c2.79 0 4.941.93 6.452 2.79 1.511 1.86 2.263 4.4 2.257 7.62 0 3.497-.882 6.305-2.645 8.424a8.593 8.593 0 0 1-3.144 2.405 8.862 8.862 0 0 1-3.927.77c-2.657 0-4.671-.984-6.04-2.952zm-.19-8.853v2.156a4.81 4.81 0 0 0 1.206 3.357c.38.43.853.774 1.386 1.005.534.23 1.114.343 1.698.328a4.21 4.21 0 0 0 2-.412 4.062 4.062 0 0 0 1.544-1.297c.84-1.14 1.26-2.756 1.26-4.848 0-1.749-.384-3.104-1.152-4.066a3.873 3.873 0 0 0-1.458-1.128 4.006 4.006 0 0 0-1.833-.34 4.363 4.363 0 0 0-1.836.362 4.234 4.234 0 0 0-1.496 1.093 5.402 5.402 0 0 0-1.318 3.79zm37.478 11.293h-6.32v-3.012h-.082a6.948 6.948 0 0 1-2.712 2.648 7.247 7.247 0 0 1-3.744.876c-2.107 0-3.762-.583-4.966-1.75-1.204-1.165-1.806-2.705-1.806-4.62 0-4.08 2.491-6.43 7.472-7.047l5.869-.761c0-2.294-1.283-3.44-3.851-3.44a13.45 13.45 0 0 0-7.368 2.233v-4.861c1.217-.557 2.5-.97 3.82-1.229a20.793 20.793 0 0 1 4.438-.533c6.182 0 9.271 2.984 9.268 8.953l-.018 12.543zm-6.284-8.525v-1.403l-3.937.49c-2.173.276-3.26 1.226-3.26 2.85a2.3 2.3 0 0 0 .192.991c.137.313.343.594.603.823a3.112 3.112 0 0 0 2.149.704 4.064 4.064 0 0 0 1.676-.302 3.944 3.944 0 0 0 1.389-.957 4.465 4.465 0 0 0 1.188-3.196zm24.236 8.279c-.984.508-2.474.757-4.465.757-4.707 0-7.062-2.37-7.065-7.109V30.87h-3.513V26.1h3.513v-4.529l6.663-1.844V26.1h4.867v4.774h-4.867v8.468c0 2.186.903 3.279 2.709 3.279a4.624 4.624 0 0 0 2.176-.595l-.018 4.814zm22.632-8.401H159.41c.226 3.045 2.208 4.568 5.946 4.568a11.9 11.9 0 0 0 6.285-1.64v4.674c-2.005 1.04-4.608 1.56-7.811 1.557-3.497 0-6.206-.939-8.126-2.816-1.921-1.877-2.888-4.5-2.903-7.869 0-3.497 1.044-6.258 3.133-8.28a10.474 10.474 0 0 1 3.523-2.306 10.738 10.738 0 0 1 4.179-.755c3.161 0 5.606.908 7.337 2.724 1.731 1.816 2.588 4.289 2.573 7.42v2.723zm-6.203-3.974c0-3.008-1.255-4.512-3.765-4.512a3.71 3.71 0 0 0-1.543.353 3.603 3.603 0 0 0-1.239.959 5.77 5.77 0 0 0-1.426 3.2h7.973zm37.303 12.622h-8.632l-8.849-12.766c-.308-.52-.576-1.06-.804-1.618h-.104v14.383h-6.835V17.7h6.835v13.894h.104a23.7 23.7 0 0 1 .849-1.64l8.379-12.24h8.127l-10.56 14.007 11.49 15.367zm20.857-8.648h-14.136c.223 3.045 2.205 4.568 5.946 4.568a11.9 11.9 0 0 0 6.285-1.64v4.674c-2.005 1.04-4.608 1.56-7.811 1.557-3.497 0-6.206-.939-8.126-2.816-1.92-1.877-2.888-4.5-2.903-7.869 0-3.497 1.044-6.257 3.133-8.28a10.458 10.458 0 0 1 3.522-2.306 10.743 10.743 0 0 1 4.18-.755c3.161 0 5.606.908 7.337 2.724 1.731 1.816 2.594 4.283 2.591 7.402l-.018 2.74zm-6.203-3.974c0-3.008-1.255-4.512-3.765-4.512a3.71 3.71 0 0 0-1.543.353 3.604 3.604 0 0 0-1.239.959 5.773 5.773 0 0 0-1.431 3.217l7.978-.017zm30.366-8.359l-8.804 22.668c-2.107 5.447-5.294 8.172-9.562 8.175a12.643 12.643 0 0 1-4-.533v-5.163c.878.5 1.879.761 2.898.756a3.7 3.7 0 0 0 2.214-.592 3.512 3.512 0 0 0 1.398-1.764l1.142-2.602-8.804-20.945h7.405l4.063 12.77c.281.917.478 1.856.591 2.807h.086c.155-.939.382-1.865.677-2.772l4.086-12.81 6.61.005z" fill="#fff"/></svg>