<svg width="599" height="656" viewBox="0 0 599 656" fill="none" xmlns="http://www.w3.org/2000/svg">
<path d="M550.509 523.92H222.093C215.594 523.92 210.301 518.522 210.301 511.895V494.045C210.301 488.12 205.575 483.275 199.741 483.275C193.906 483.275 189.18 488.095 189.18 494.045V505.217C189.18 511.844 183.887 517.242 177.388 517.242H175.124C168.625 517.242 163.332 511.844 163.332 505.217V215.955C163.332 215.604 163.603 215.328 163.947 215.328C164.292 215.328 164.563 215.604 164.563 215.955V505.217C164.563 511.142 169.289 515.987 175.124 515.987H177.388C183.198 515.987 187.949 511.167 187.949 505.217V494.045C187.949 487.417 193.242 482.02 199.741 482.02C206.24 482.02 211.532 487.417 211.532 494.045V511.895C211.532 517.819 216.259 522.665 222.093 522.665H550.509C556.319 522.665 561.07 517.845 561.07 511.895V394.528C561.07 387.901 566.363 382.503 572.862 382.503H586.598C592.408 382.503 597.159 377.683 597.159 371.733V193.486C597.159 187.561 592.432 182.716 586.598 182.716H497.115C496.771 182.716 496.5 182.44 496.5 182.089C496.5 181.737 496.771 181.461 497.115 181.461L586.598 181.461C593.097 181.461 598.39 186.859 598.39 193.486V371.733C598.39 378.361 593.097 383.758 586.598 383.758H572.862C567.052 383.758 562.301 388.578 562.301 394.528V511.895C562.301 518.522 557.008 523.92 550.509 523.92Z" fill="white"/>
<path d="M498 424H222.309C222.309 424 222.309 292.855 222.309 249.157C222.309 160.432 222 25.0712 222 25.0712L498 25V424Z" fill="#E2E0E1"/>
<path opacity="0.55" d="M491.202 385.894C483.527 385.041 475.827 384.364 468.128 383.612C462.378 383.06 456.652 382.483 450.927 381.73C441.574 380.501 432.122 379.423 422.868 377.516C414.28 375.76 405.815 373.377 397.474 370.643C388.393 367.658 379.459 364.197 370.649 360.434C356.509 354.389 342.467 348.344 328.77 341.32C310.533 331.939 292.864 321.353 275.959 309.664C263.571 301.111 251.75 291.83 239.954 282.423C234.155 277.808 228.479 273.017 223 268C223 321.88 223 425 223 425H498V387.5C495.063 386.898 494.138 386.396 491.202 385.894Z" fill="#E2E0E1"/>
<path d="M480.89 483.449H238.634C229.181 483.449 221.5 475.616 221.5 465.976V424.628C221.5 424.276 221.771 424 222.115 424H497.433C497.777 424 498.048 423.998 498.048 424.35V465.976C498.024 475.591 490.318 483.449 480.89 483.449ZM222.706 425.255V465.976C222.706 474.913 229.845 482.193 238.609 482.193H480.866C489.629 482.193 496.768 474.913 496.768 465.976V425.255H222.706Z" fill="black"/>
<path d="M554.05 324.86C537.507 324.86 524.066 311.153 524.066 294.282C524.066 277.412 537.507 263.704 554.05 263.704C570.593 263.704 584.034 277.412 584.034 294.282C584.034 311.153 570.568 324.86 554.05 324.86ZM554.05 264.959C538.197 264.959 525.297 278.114 525.297 294.282C525.297 310.45 538.197 323.605 554.05 323.605C569.903 323.605 582.803 310.45 582.803 294.282C582.803 278.114 569.903 264.959 554.05 264.959Z" fill="white"/>
<path d="M542.429 193.535C548.547 193.535 553.507 188.477 553.507 182.238C553.507 175.998 548.547 170.94 542.429 170.94C536.311 170.94 531.352 175.998 531.352 182.238C531.352 188.477 536.311 193.535 542.429 193.535Z" fill="white"/>
<path d="M497.115 25H222.783C222.438 25 222 25.3521 222 25L222.168 17.505C222.168 7.84708 229.839 0 239.281 0H481.245C490.687 0 497.705 7.84708 497.705 17.505L498 25C498.025 25.3521 497.459 25 497.115 25ZM223.397 23.7425H496.68L496.5 17.505C496.5 8.55131 490.023 1.25755 481.27 1.25755H239.305C230.552 1.25755 223.422 8.55131 223.422 17.505V23.7425H223.397Z" fill="#E2E0E1"/>
<path d="M377.673 464.8H342.274C336.208 464.8 331.277 459.786 331.277 453.576C331.277 447.365 336.208 442.352 342.274 442.352H377.673C383.739 442.352 388.669 447.365 388.669 453.576C388.669 459.786 383.739 464.8 377.673 464.8Z" fill="#E2E0E1" stroke="black"/>
<path d="M597.746 294.911H575.369C575.025 294.911 574.754 294.635 574.754 294.284C574.754 293.932 575.025 293.656 575.369 293.656H597.746C598.091 293.656 598.362 293.932 598.362 294.284C598.362 294.635 598.091 294.911 597.746 294.911Z" fill="#77C5B2"/>
<path d="M244.102 18.8803C247.041 17.6387 248.437 14.2021 247.22 11.2046C246.002 8.207 242.632 6.78357 239.693 8.02522C236.754 9.26688 235.358 12.7034 236.576 15.701C237.793 18.6985 241.163 20.122 244.102 18.8803Z" fill="white"/>
<path d="M266.024 14.8187C266.755 11.6612 264.838 8.49717 261.742 7.75159C258.646 7.00601 255.543 8.96125 254.812 12.1188C254.081 15.2763 255.998 18.4403 259.094 19.1859C262.19 19.9315 265.293 17.9762 266.024 14.8187Z" fill="white"/>
<path d="M281.122 18.8725C284.061 17.6309 285.457 14.1943 284.239 11.1967C283.022 8.19919 279.652 6.77576 276.713 8.01741C273.773 9.25906 272.378 12.6956 273.595 15.6932C274.813 18.6907 278.182 20.1142 281.122 18.8725Z" fill="white"/>
<path d="M571.874 302.886C576.536 298.131 576.536 290.422 571.874 285.667C567.211 280.912 559.652 280.912 554.989 285.667C550.327 290.422 550.327 298.131 554.989 302.886C559.652 307.641 567.211 307.641 571.874 302.886Z" fill="#FBDC28"/>
<path d="M379.273 132.63C404.53 156.756 438.871 168.932 481.557 168.932C486.801 168.932 492.486 168.326 498 168V167C492.535 167.377 486.776 167.701 481.557 167.701C439.191 167.701 405.121 155.626 380.11 131.751C369.968 122.06 361.327 110.412 354.41 97.0807C348.871 86.411 344.416 74.6618 341.191 62.1594C335.701 40.8452 335.731 24.1506 335.731 24H334.5C334.5 24.1506 334.47 40.9707 340.009 62.4356C343.283 75.0384 347.739 86.888 353.327 97.633C360.318 111.064 369.033 122.864 379.273 132.63Z" fill="white"/>
<path d="M446.038 109.75C459.676 120.947 477.863 127.368 498 129V127.5C478.134 125.893 460.267 119.793 446.826 108.771C436.093 99.9595 427.501 88.1601 421.322 73.7497C410.762 49.1467 411.001 24.2511 411.001 24H409.77C409.77 24.2511 409.531 49.3726 420.165 74.2267C426.418 88.863 435.133 100.813 446.038 109.75Z" fill="white"/>
<path d="M306.374 351.257C317.575 374.077 324.301 398.995 326 424H327C325.301 398.82 318.732 373.65 307.457 350.679C298.423 332.327 286.409 314.829 271.738 298.711C246.751 271.246 222.746 257.151 222.5 257V258.354C222.746 258.479 246.013 272.276 270.876 299.59C285.474 315.607 297.413 333.005 306.374 351.257Z" fill="white"/>
<path d="M92.5 120.5L151.292 181.835L238.585 140.888L255.57 166.897L165.792 224.288C151.317 231.418 131.549 234.104 119.019 223.836L72.3945 185.525L92.5 120.5Z" fill="#0A0A0B"/>
<rect x="251.5" y="56.1582" width="73" height="75" rx="14" transform="rotate(-8.79391 251.5 56.1582)" fill="white"/>
<path d="M278.293 108.606C275.708 108.606 273.444 106.698 273.025 104.011L269.874 83.7516C269.653 82.3206 269.997 80.8645 270.834 79.6845C271.671 78.5046 272.902 77.7263 274.33 77.5004C276.398 77.174 277.825 75.1656 277.505 73.0568L277.259 71.4751C276.939 69.3914 278.342 67.4081 280.386 67.0817L303.501 63.3411C304.486 63.1905 305.495 63.4164 306.307 64.0189C307.12 64.6215 307.661 65.5001 307.809 66.5294L308.055 68.1111C308.375 70.2199 310.345 71.676 312.412 71.3496C315.317 70.8726 318.074 72.9061 318.542 75.8685L321.693 96.1284C321.915 97.5594 321.57 99.0155 320.733 100.195C319.896 101.375 318.665 102.154 317.237 102.38L279.155 108.555C278.859 108.581 278.564 108.606 278.293 108.606ZM304.067 64.5461C303.944 64.5461 303.796 64.5461 303.673 64.5712L280.558 68.3119C279.179 68.5379 278.244 69.8684 278.466 71.2743L278.712 72.8559C279.155 75.6677 277.259 78.3037 274.527 78.7556C273.444 78.9314 272.484 79.5339 271.844 80.4377C271.204 81.3415 270.933 82.4461 271.105 83.5507L274.256 103.811C274.601 106.095 276.718 107.652 278.958 107.3L317.04 101.124C318.124 100.949 319.084 100.346 319.724 99.4422C320.364 98.5385 320.635 97.4338 320.462 96.3292L317.311 76.0694C317.139 74.9648 316.548 73.9857 315.662 73.3329C314.776 72.6802 313.693 72.404 312.609 72.5798C309.852 73.0317 307.267 71.0986 306.824 68.3119L306.578 66.7303C306.48 66.0524 306.11 65.4499 305.569 65.0482C305.101 64.7219 304.584 64.5461 304.067 64.5461Z" fill="black"/>
<path d="M295.89 98.6619C289.982 98.6619 284.763 94.2685 283.803 88.1428C283.286 84.854 284.074 81.5402 285.994 78.8539C287.914 76.1425 290.745 74.3852 293.97 73.858C300.642 72.7785 306.919 77.4229 307.977 84.2264C309.036 91.0299 304.482 97.4317 297.811 98.5112C297.171 98.6117 296.506 98.6619 295.89 98.6619ZM295.89 74.9626C295.324 74.9626 294.733 75.0128 294.143 75.1132C288.136 76.0923 284.05 81.8414 285.01 87.9671C285.97 94.0927 291.607 98.2602 297.614 97.2811C303.62 96.302 307.707 90.5529 306.747 84.4273C305.91 78.9041 301.208 74.9626 295.89 74.9626Z" fill="black"/>
<path d="M295.87 93.7654C294.319 93.7654 292.792 93.2633 291.512 92.3093C289.912 91.1294 288.854 89.372 288.534 87.3636C287.894 83.2464 290.651 79.33 294.713 78.6772C296.682 78.3509 298.651 78.8279 300.251 80.0329C301.851 81.2128 302.91 82.9702 303.23 84.9786C303.55 86.987 303.082 88.9954 301.901 90.6273C300.744 92.2591 299.02 93.3386 297.051 93.665C296.657 93.7403 296.263 93.7654 295.87 93.7654ZM295.894 79.8572C295.574 79.8572 295.229 79.8823 294.909 79.9325C291.537 80.4848 289.223 83.7234 289.765 87.1879C290.035 88.8448 290.897 90.326 292.251 91.3051C293.605 92.2842 295.229 92.6859 296.879 92.4348C298.504 92.1587 299.956 91.28 300.916 89.8992C301.901 88.5184 302.27 86.8615 302.024 85.1795C301.753 83.5225 300.891 82.0413 299.537 81.0622C298.454 80.284 297.199 79.8572 295.894 79.8572Z" fill="black"/>
<path d="M260.222 72.3507C259.926 72.3507 259.68 72.1498 259.631 71.8486L258.499 66.0242C258.425 65.6727 258.646 65.3464 258.991 65.2962L264.407 64.2166C264.751 64.1413 265.071 64.3673 265.121 64.7187C265.194 65.0702 264.973 65.3966 264.628 65.4468L259.803 66.4259L260.813 71.6477C260.886 71.9992 260.665 72.3256 260.32 72.3758C260.32 72.3256 260.271 72.3507 260.222 72.3507Z" fill="black"/>
<path d="M317.975 60.7282C317.679 60.7282 317.433 60.5274 317.359 60.2261L316.35 55.0042L311.525 55.9834C311.18 56.0587 310.86 55.8327 310.811 55.4812C310.737 55.1298 310.959 54.8034 311.303 54.7532L316.719 53.6737C317.064 53.5983 317.384 53.8243 317.433 54.1758L318.566 60.0002C318.639 60.3517 318.418 60.678 318.073 60.7282C318.049 60.7282 318.024 60.7282 317.975 60.7282Z" fill="black"/>
<path d="M269.183 118.596C268.887 118.596 268.641 118.395 268.592 118.094L267.46 112.269C267.386 111.918 267.607 111.592 267.952 111.541C268.272 111.466 268.617 111.692 268.666 112.043L269.675 117.265L274.5 116.286C274.82 116.211 275.165 116.437 275.214 116.788C275.288 117.14 275.066 117.466 274.721 117.516L269.306 118.596C269.257 118.596 269.207 118.596 269.183 118.596Z" fill="black"/>
<path d="M321.493 108.079C321.198 108.079 320.951 107.878 320.877 107.577C320.804 107.225 321.025 106.899 321.37 106.849L326.195 105.87L325.186 100.648C325.112 100.296 325.333 99.97 325.678 99.9198C326.023 99.8444 326.343 100.07 326.392 100.422L327.524 106.246C327.549 106.422 327.524 106.573 327.426 106.723C327.327 106.874 327.204 106.949 327.032 106.999L321.616 108.079C321.567 108.079 321.542 108.079 321.493 108.079Z" fill="black"/>
<path d="M250.328 171.163C250.131 171.163 249.934 171.063 249.811 170.887L232.529 144.125C232.332 143.824 232.431 143.447 232.702 143.246C232.997 143.045 233.366 143.146 233.563 143.422L250.844 170.184C251.041 170.485 250.943 170.862 250.672 171.063C250.574 171.113 250.451 171.163 250.328 171.163Z" fill="white"/>
<path d="M259.09 160.344C258.918 160.344 258.721 160.269 258.598 160.093C258.401 159.817 258.45 159.415 258.697 159.215L262.98 155.85C263.251 155.65 263.645 155.7 263.841 155.951C264.038 156.227 263.989 156.629 263.743 156.83L259.46 160.194C259.337 160.294 259.213 160.344 259.09 160.344Z" fill="#60D2D0"/>
<path d="M128.792 151.709L175.712 144.68C175.712 144.68 177.706 148.747 173.866 151.408C173.866 151.408 175.294 154.722 171.798 156.68C171.798 156.68 173.053 160.019 168.524 162.303L140.091 168.981L112.471 190.848L105.824 161.977L128.792 151.709Z" fill="white"/>
<path d="M82.5864 117.641L57.3293 122.386C51.9874 123.215 45.4885 125.298 43.1499 131.826L19.8867 251.326L123.229 249.393L99.3753 131.424C99.3753 131.424 95.2396 115.708 82.5864 117.641Z" fill="#0A0A0B"/>
<path d="M72.9859 90.9198L82.1877 89.527L82.0916 117.54C82.0861 117.552 82.0799 117.565 82.073 117.58C82.0338 117.664 81.9699 117.792 81.8754 117.954C81.6864 118.278 81.3747 118.74 80.8928 119.268C79.9312 120.32 78.2817 121.642 75.5516 122.644C72.9066 123.602 70.5812 123.056 68.8968 122.257C68.0535 121.857 67.3766 121.395 66.9112 121.034C66.6914 120.864 66.5198 120.717 66.4012 120.61L72.9859 90.9198Z" fill="white" stroke="black"/>
<path d="M75.2225 102.553C76.7241 103.331 78.275 103.959 79.8751 104.486C80.786 104.662 81.6968 104.812 82.6076 104.938L82.6569 88.9209L72.5392 90.4523L70.7422 99.2642C72.17 100.469 73.647 101.574 75.2225 102.553Z" fill="#0A0A0B"/>
<path d="M88.5956 76.1461C93.9108 81.5667 93.9108 90.3552 88.5956 95.7757C83.2804 101.196 74.6628 101.196 69.3476 95.7757C64.0324 90.3552 64.0324 81.5667 69.3476 76.1461C74.6628 70.7256 83.2804 70.7256 88.5956 76.1461Z" fill="white" stroke="black"/>
<path d="M85.4398 73.1827C82.5842 71.6764 79.2117 71.1492 75.8392 71.9275C68.2325 73.6848 63.4814 81.3921 65.2046 89.1245C65.8939 92.2375 67.5186 94.8735 69.7341 96.8066C73.4513 94.4719 73.599 89.4257 73.599 89.4257L76.5531 83.5762C76.5284 83.5762 79.4333 75.9443 85.4398 73.1827Z" fill="black"/>
<path d="M74.3566 82.8315C76.255 83.2656 77.463 85.1928 77.0327 87.1502C76.6023 89.1075 74.703 90.3242 72.8047 89.89C70.9063 89.4559 69.6982 87.5288 70.1286 85.5714C70.5589 83.614 72.4582 82.3974 74.3566 82.8315Z" fill="white" stroke="black"/>
<path d="M73.9715 86.035C74.6608 86.7881 75.03 87.5915 74.7592 87.8425C74.513 88.0685 73.7499 87.6417 73.0606 86.8886C72.3713 86.1354 72.002 85.332 72.2728 85.081C72.519 84.855 73.2822 85.2818 73.9715 86.035Z" fill="#0A0A0B"/>
<path d="M89.8487 82.7223C90.0702 83.6763 89.8979 84.5299 89.4794 84.6303C89.0609 84.7307 88.544 84.0278 88.347 83.0738C88.1255 82.1198 88.2978 81.2662 88.7163 81.1658C89.1348 81.0654 89.6271 81.7683 89.8487 82.7223Z" fill="#0A0A0B"/>
<path d="M92.5061 88.0935C92.383 88.0935 92.2599 88.0433 92.2107 87.9177C92.0876 87.742 92.1368 87.5161 92.3092 87.3905L95.1401 85.4323L91.866 82.4699C91.7183 82.3444 91.6937 82.0933 91.8414 81.9427C91.9645 81.7921 92.2107 81.767 92.3584 81.9176L95.9771 85.1813C96.051 85.2566 96.1002 85.3821 96.1002 85.4825C96.1002 85.6081 96.0264 85.7085 95.9279 85.7587L92.703 87.993C92.6538 88.0684 92.5799 88.0935 92.5061 88.0935Z" fill="#0A0A0B"/>
<path d="M105.825 161.952L47.753 197.476L57.3291 122.387C42.5096 123.391 26.2131 128.663 19.9111 145.659L1.47295 214.723C-5.0752 240.004 23.3821 259.461 43.8143 243.695L112.447 190.823L105.825 161.952Z" fill="#0A0A0B"/>
<path d="M181.112 136.387L181.041 135.892L180.546 135.966L109.018 146.709L108.524 146.784L108.595 147.278L108.926 149.571L108.997 150.066L109.492 149.991L181.02 139.248L181.514 139.174L181.443 138.679L181.112 136.387Z" fill="white" stroke="white"/>
<path d="M178.188 139.011L178.027 139.721L178.747 139.617L180.998 139.292L181.338 139.243L181.414 138.908L198.932 61.7288L199.095 61.0122L198.369 61.124L196.118 61.4705L195.782 61.5222L195.706 61.8539L178.188 139.011Z" fill="white" stroke="white"/>
<path d="M145.63 156.253C145.335 156.253 145.064 156.027 145.015 155.726C144.965 155.375 145.187 155.073 145.532 155.023L173.767 150.78C174.112 150.73 174.407 150.956 174.457 151.308C174.506 151.659 174.284 151.96 173.94 152.011L159.834 154.132L145.729 156.253C145.679 156.253 145.655 156.253 145.63 156.253Z" fill="#0A0A0B"/>
<path d="M155.083 159.819C154.788 159.819 154.517 159.593 154.468 159.292C154.419 158.94 154.64 158.639 154.985 158.589L171.7 156.078C172.044 156.028 172.34 156.254 172.389 156.605C172.438 156.957 172.217 157.258 171.872 157.308L155.157 159.819C155.132 159.819 155.108 159.819 155.083 159.819Z" fill="#0A0A0B"/>
<path d="M44.4557 204.706C44.3572 204.706 44.2588 204.681 44.1849 204.631C43.8895 204.48 43.7664 204.104 43.9142 203.777L47.2128 197.175C47.2621 197.074 47.3359 196.974 47.4344 196.924L105.531 161.4C105.826 161.224 106.195 161.325 106.368 161.626C106.54 161.927 106.442 162.304 106.146 162.479L48.2221 197.903L45.0219 204.355C44.8988 204.581 44.6773 204.706 44.4557 204.706Z" fill="white"/>
<path d="M128.255 173.624C128.058 173.624 127.886 173.524 127.763 173.373C127.566 173.097 127.615 172.695 127.91 172.494L130.569 170.511C130.84 170.31 131.234 170.361 131.431 170.662C131.628 170.938 131.578 171.34 131.283 171.54L128.624 173.524C128.526 173.574 128.378 173.624 128.255 173.624Z" fill="#0A0A0B"/>
<path d="M132.778 170.237C132.582 170.237 132.409 170.137 132.286 169.986C132.089 169.71 132.138 169.309 132.434 169.108L135.092 167.124C135.363 166.924 135.757 166.974 135.954 167.275C136.151 167.551 136.102 167.953 135.806 168.154L133.148 170.137C133.025 170.212 132.902 170.237 132.778 170.237Z" fill="#0A0A0B"/>
<mask id="mask0" mask-type="alpha" maskUnits="userSpaceOnUse" x="19" y="118" width="104" height="134">
<path d="M81.6997 118.165L56.4426 122.91C51.1007 123.738 44.6018 125.822 42.2631 132.349L19 251.85L122.343 249.917L98.4886 131.947C98.4886 131.947 94.3529 116.232 81.6997 118.165Z" fill="#0A0A0B"/>
</mask>
<g mask="url(#mask0)">
<path d="M71.6333 127.207C64.8636 127.207 62.1804 121.709 62.1558 121.634C62.0081 121.333 62.1311 120.956 62.4512 120.806C62.7466 120.655 63.1158 120.78 63.2635 121.107C63.3866 121.383 66.513 127.634 74.8828 125.55C79.3385 124.446 81.8494 122.262 83.1788 120.655C84.6312 118.898 85.025 117.391 85.025 117.366C85.1235 117.04 85.4435 116.839 85.7636 116.914C86.0836 116.99 86.2805 117.341 86.2067 117.667C86.1328 117.944 84.4096 124.446 75.1536 126.755C73.8735 127.082 72.6919 127.207 71.6333 127.207Z" fill="white"/>
</g>
<path d="M47.7501 198.103C47.7255 198.103 47.7009 198.103 47.6762 198.103C47.3316 198.053 47.1101 197.752 47.1347 197.4L51.0241 166.948C51.0734 166.596 51.3688 166.37 51.7134 166.395C52.058 166.446 52.2796 166.747 52.255 167.098L48.3409 197.551C48.3163 197.852 48.0455 198.103 47.7501 198.103Z" fill="white"/>
<path d="M238.586 141.164L271.794 126.327C271.794 126.327 279.672 115.557 284.817 115.231C284.817 115.231 286.417 116.386 283.66 120.151L281.592 124.67C281.592 124.67 291.488 119.549 296.855 115.457C297.79 114.729 299.144 115.582 298.898 116.762C298.849 116.938 298.799 117.139 298.726 117.365C298.726 117.365 300.966 117.515 300.719 120.302C300.719 120.302 303.477 121.331 301.556 123.842L287.5 139.332L255.572 167.173L238.586 141.164Z" fill="white"/>
<path d="M105.775 161.174C105.504 161.174 105.233 160.973 105.184 160.672L98.8084 131.55C98.7346 131.224 98.9315 130.872 99.2761 130.797C99.5961 130.722 99.9408 130.923 100.015 131.274L106.391 160.396C106.464 160.722 106.267 161.074 105.923 161.149C105.849 161.174 105.824 161.174 105.775 161.174Z" fill="white"/>
<path d="M286.909 133.911C286.811 133.911 286.712 133.861 286.638 133.785C286.491 133.635 286.515 133.384 286.663 133.258L300.449 120.003C300.596 119.852 300.842 119.877 300.965 120.028C301.113 120.178 301.089 120.429 300.941 120.555L287.155 133.81C287.081 133.886 286.983 133.911 286.909 133.911Z" fill="#0A0A0B"/>
<path d="M283.585 130.571C283.487 130.571 283.364 130.52 283.29 130.445C283.167 130.294 283.191 130.043 283.339 129.918L298.429 117.089C298.577 116.964 298.823 116.989 298.946 117.139C299.069 117.29 299.045 117.541 298.897 117.667L283.807 130.495C283.757 130.52 283.659 130.571 283.585 130.571Z" fill="#0A0A0B"/>
<path d="M283.119 132.705C283.095 132.705 283.07 132.705 283.046 132.705C282.849 132.654 282.725 132.454 282.75 132.253C283.563 128.11 281.298 124.922 281.273 124.872C281.15 124.696 281.199 124.47 281.347 124.345C281.519 124.219 281.741 124.269 281.864 124.42C281.962 124.571 284.35 127.91 283.464 132.378C283.439 132.579 283.292 132.705 283.119 132.705Z" fill="#0A0A0B"/>
<path d="M81.5791 626.849V644.071C81.5791 644.071 118.357 644.472 120.228 655.895H10.0664L11.5188 626.849H81.5791Z" fill="black"/>
<path d="M332.325 508.127L346.184 517.994C346.184 517.994 367.601 487.491 377.842 492.462L319.007 579.15L293.922 559.041L332.325 508.127Z" fill="black"/>
<path d="M129.604 273.896C129.604 273.896 211.012 371.405 229.106 389.857C247.224 408.335 332.055 508.454 332.055 508.454L293.923 559.041C293.923 559.041 273.909 542.019 266.278 526.956C258.646 511.893 248.16 508.479 240.061 501.675C231.962 494.872 224.798 473.482 220.047 472.026C215.271 470.57 189.546 448.201 180.241 435.097C170.936 421.967 85.8346 328.199 85.8346 328.199C85.8346 328.199 103.731 439.465 102.303 451.139C100.876 462.813 81.5758 626.85 81.5758 626.85H11.5156C11.5156 626.85 12.2295 605.335 16.1683 590.397C20.107 575.459 15.4544 549.928 15.0851 539.735C14.7158 529.517 35.8127 495.625 33.671 475.215C32.0709 460.051 10.3832 341.68 17.9407 283.386C20.6239 262.775 19.8608 251.352 19.8608 251.352L123.203 249.419L129.604 273.896Z" fill="white"/>
<path d="M112.47 190.823L38.8653 246.783C38.8653 246.783 30.7171 251 20.4764 248.339L19.9102 251.302L67.8642 250.398C67.8642 250.398 67.3227 241.636 75.1755 237.82C83.0284 234.004 87.9271 228.556 90.7335 224.263C93.5398 219.97 112.79 197.451 112.79 197.451L112.47 190.823Z" fill="#0A0A0B"/>
<path d="M117.939 223.838C117.643 223.838 117.397 223.637 117.323 223.311L111.858 192.532C111.809 192.18 112.031 191.854 112.351 191.804C112.695 191.754 113.015 191.98 113.065 192.306L118.53 223.085C118.579 223.436 118.357 223.763 118.037 223.813C118.013 223.838 117.963 223.838 117.939 223.838Z" fill="white"/>
<path d="M49.7 627.477C49.6754 627.477 49.6754 627.477 49.6508 627.477C49.3062 627.452 49.06 627.151 49.0846 626.799C49.1585 625.77 57.7745 524.295 65.7504 502.629C73.6033 481.34 76.3604 440.846 76.1143 431.481C75.8927 423.071 44.1858 253.16 43.8658 251.452C43.7919 251.101 44.0135 250.775 44.3581 250.724C44.7027 250.649 45.0228 250.875 45.072 251.227C46.3767 258.231 77.1236 422.946 77.3451 431.456C77.5913 440.871 74.8095 481.616 66.9074 503.081C58.9807 524.596 50.4139 625.896 50.3155 626.925C50.2662 627.226 49.9954 627.477 49.7 627.477Z" fill="black"/>
<path d="M85.8612 328.801C85.812 328.801 85.7873 328.801 85.7381 328.801C85.3935 328.726 85.1965 328.4 85.2458 328.073L92.1878 290.541C92.237 290.24 92.5078 290.039 92.8032 290.039H98.3913C98.7359 290.039 99.0067 290.315 99.0067 290.667C99.0067 291.018 98.7359 291.294 98.3913 291.294H93.2956L86.452 328.324C86.4028 328.601 86.132 328.801 85.8612 328.801Z" fill="white"/>
<path d="M89.6655 346.099L102.959 441.925C102.959 441.925 104.411 460.402 100.965 470.896L82.5758 626.849H66.1562C66.1562 626.849 72.8521 618.866 77.7263 583.668C82.6004 548.471 75.6092 521.835 80.7295 512.32C85.8499 502.805 95.2536 454.754 93.1119 448.578C90.9948 442.377 94.4412 373.965 89.6655 346.099Z" fill="black"/>
<path d="M137.828 283.763C137.828 283.763 194.94 366.283 209.39 384.836C223.84 403.389 289.075 472.327 293.925 486.487C298.75 500.621 310.591 536.948 304.24 545.383L332.057 508.504C332.057 508.504 245.651 405.497 237.38 397.69C229.108 389.882 137.828 283.763 137.828 283.763Z" fill="black"/>
<path d="M320.877 523.916C320.729 523.916 320.557 523.866 320.434 523.741C319.622 522.912 240.232 441.295 229.179 431.278L227.628 429.872C214.851 418.299 180.929 387.595 159.463 361.436C137.357 334.523 92.1599 295.133 91.6921 294.731C91.4214 294.506 91.3967 294.104 91.6183 293.853C91.8399 293.577 92.2337 293.552 92.4799 293.778C92.923 294.179 138.218 333.619 160.398 360.632C181.815 386.717 215.688 417.395 228.44 428.918L229.991 430.324C241.069 440.366 320.483 522.008 321.296 522.837C321.542 523.088 321.542 523.49 321.296 523.715C321.197 523.866 321.025 523.916 320.877 523.916Z" fill="black"/>
<path d="M81.6025 638.521H11.5178C11.1731 638.521 10.9023 638.245 10.9023 637.893C10.9023 637.542 11.1731 637.266 11.5178 637.266H81.5779C81.9226 637.266 82.1934 637.542 82.1934 637.893C82.1934 638.245 81.9226 638.521 81.6025 638.521Z" fill="white"/>
<path d="M306.503 569.76C306.38 569.76 306.281 569.735 306.183 569.66C305.888 569.484 305.814 569.082 305.986 568.781L340.179 513.776C340.351 513.474 340.745 513.399 341.041 513.575C341.336 513.751 341.41 514.152 341.238 514.453L307.045 569.459C306.922 569.66 306.725 569.76 306.503 569.76Z" fill="white"/>
<path d="M205.549 156.68C205.549 156.68 160.476 189.492 156.118 188.739C151.761 188.011 151.86 181.86 151.86 181.86L205.549 156.68Z" fill="black"/>
<path d="M155.086 186.506C154.938 186.506 154.766 186.455 154.667 186.33L150.876 182.564C150.63 182.313 150.63 181.936 150.876 181.685C151.122 181.434 151.491 181.434 151.738 181.685L155.529 185.451C155.775 185.702 155.775 186.079 155.529 186.33C155.406 186.455 155.233 186.506 155.086 186.506Z" fill="white"/>
<path d="M437.122 123.642H391.138C383.432 123.642 377.18 117.24 377.18 109.407V62.511C377.18 54.6531 383.457 48.2764 391.138 48.2764H437.122C444.827 48.2764 451.08 54.6782 451.08 62.511V109.407C451.08 117.24 444.827 123.642 437.122 123.642ZM391.138 49.5065C384.122 49.5065 378.411 55.3309 378.411 62.4859V109.382C378.411 116.537 384.122 122.362 391.138 122.362H437.122C444.138 122.362 449.849 116.537 449.849 109.382V62.511C449.849 55.356 444.138 49.5316 437.122 49.5316H391.138V49.5065Z" fill="white"/>
<path d="M437.122 260.892H391.138C383.432 260.892 377.18 254.49 377.18 246.657V199.761C377.18 191.903 383.457 185.526 391.138 185.526H437.122C444.827 185.526 451.08 191.928 451.08 199.761V246.657C451.08 254.515 444.827 260.892 437.122 260.892ZM391.138 186.782C384.122 186.782 378.411 192.606 378.411 199.761V246.657C378.411 253.812 384.122 259.637 391.138 259.637H437.122C444.138 259.637 449.849 253.812 449.849 246.657V199.761C449.849 192.606 444.138 186.782 437.122 186.782H391.138Z" fill="white"/>
<path d="M321.669 260.892H275.684C267.979 260.892 261.727 254.49 261.727 246.657V199.761C261.727 191.903 268.004 185.526 275.684 185.526H321.669C329.374 185.526 335.627 191.928 335.627 199.761V246.657C335.652 254.515 329.374 260.892 321.669 260.892ZM275.684 186.782C268.669 186.782 262.957 192.606 262.957 199.761V246.657C262.957 253.812 268.669 259.637 275.684 259.637H321.669C328.685 259.637 334.396 253.812 334.396 246.657V199.761C334.396 192.606 328.685 186.782 321.669 186.782H275.684Z" fill="white"/>
<path d="M321.669 383.78H275.684C267.979 383.78 261.727 377.378 261.727 369.545V322.649C261.727 314.791 268.004 308.414 275.684 308.414H321.669C329.374 308.414 335.627 314.816 335.627 322.649V369.545C335.652 377.403 329.374 383.78 321.669 383.78ZM275.684 309.669C268.669 309.669 262.957 315.494 262.957 322.649V369.545C262.957 376.7 268.669 382.524 275.684 382.524H321.669C328.685 382.524 334.396 376.7 334.396 369.545V322.649C334.396 315.494 328.685 309.669 321.669 309.669H275.684Z" fill="white"/>
<path d="M437.122 383.78H391.138C383.432 383.78 377.18 377.378 377.18 369.545V322.649C377.18 314.791 383.457 308.414 391.138 308.414H437.122C444.827 308.414 451.08 314.816 451.08 322.649V369.545C451.08 377.403 444.827 383.78 437.122 383.78ZM391.138 309.669C384.122 309.669 378.411 315.494 378.411 322.649V369.545C378.411 376.7 384.122 382.524 391.138 382.524H437.122C444.138 382.524 449.849 376.7 449.849 369.545V322.649C449.849 315.494 444.138 309.669 437.122 309.669H391.138Z" fill="white"/>
<path d="M424.887 107.15H394.682C394.337 107.15 394.066 106.874 394.066 106.523V67.5092C394.066 67.3335 394.14 67.1578 394.263 67.0322L404.307 57.9944C404.43 57.894 404.553 57.8438 404.726 57.8438H424.862C425.207 57.8438 425.478 58.1199 425.478 58.4714V106.523C425.502 106.874 425.232 107.15 424.887 107.15ZM395.297 105.895H424.271V59.099H404.972L395.297 67.7854V105.895Z" fill="black"/>
<path d="M433.574 114.529H403.369C403.025 114.529 402.754 114.253 402.754 113.902V106.521C402.754 106.169 403.025 105.893 403.369 105.893C403.714 105.893 403.985 106.169 403.985 106.521V113.274H432.959V66.4779H424.885C424.54 66.4779 424.269 66.2018 424.269 65.8503C424.269 65.4988 424.54 65.2227 424.885 65.2227H433.574C433.919 65.2227 434.19 65.4988 434.19 65.8503V113.902C434.19 114.253 433.919 114.529 433.574 114.529Z" fill="black"/>
<path d="M404.751 68.2614H394.707C394.461 68.2614 394.215 68.1108 394.141 67.8598C394.043 67.6087 394.116 67.3326 394.313 67.1568L404.357 58.0185C404.529 57.8428 404.8 57.8177 405.022 57.9181C405.243 58.0185 405.391 58.2445 405.391 58.4955V67.6338C405.366 67.9853 405.096 68.2614 404.751 68.2614ZM396.307 67.0062H404.136V59.9014L396.307 67.0062Z" fill="black"/>
<path d="M417.233 73.056H399.705C399.361 73.056 399.09 72.7799 399.09 72.4284C399.09 72.0769 399.361 71.8008 399.705 71.8008H417.233C417.577 71.8008 417.848 72.0769 417.848 72.4284C417.848 72.7799 417.577 73.056 417.233 73.056Z" fill="black"/>
<path d="M417.233 78.6039H399.705C399.361 78.6039 399.09 78.3278 399.09 77.9763C399.09 77.6248 399.361 77.3486 399.705 77.3486H417.233C417.577 77.3486 417.848 77.6248 417.848 77.9763C417.848 78.3278 417.577 78.6039 417.233 78.6039Z" fill="black"/>
<path d="M417.233 84.1537H399.705C399.361 84.1537 399.09 83.8776 399.09 83.5261C399.09 83.1746 399.361 82.8984 399.705 82.8984H417.233C417.577 82.8984 417.848 83.1746 417.848 83.5261C417.848 83.8776 417.577 84.1537 417.233 84.1537Z" fill="black"/>
<path d="M417.233 99.3656H399.705C399.361 99.3656 399.09 99.0894 399.09 98.738C399.09 98.3865 399.361 98.1104 399.705 98.1104H417.233C417.577 98.1104 417.848 98.3865 417.848 98.738C417.848 99.0894 417.577 99.3656 417.233 99.3656Z" fill="black"/>
<path d="M302.858 248.841H294.488C293.208 248.841 292.15 247.762 292.15 246.456V243.042C292.15 242.565 291.879 242.163 291.436 241.987C291.214 241.887 290.993 241.812 290.771 241.711C290.352 241.51 289.86 241.611 289.54 241.937L287.177 244.347C286.266 245.276 284.789 245.276 283.854 244.347L277.946 238.322C277.035 237.393 277.035 235.887 277.946 234.933L280.309 232.523C280.629 232.196 280.727 231.694 280.53 231.268C280.432 231.042 280.333 230.816 280.26 230.59C280.087 230.138 279.693 229.862 279.226 229.862H275.878C274.598 229.862 273.539 228.782 273.539 227.477V218.941C273.539 217.635 274.598 216.556 275.878 216.556H279.226C279.693 216.556 280.087 216.28 280.26 215.828C280.358 215.602 280.432 215.376 280.53 215.15C280.727 214.723 280.629 214.221 280.309 213.895L277.946 211.485C277.502 211.033 277.256 210.43 277.256 209.803C277.256 209.175 277.502 208.572 277.946 208.121L283.854 202.095C284.764 201.166 286.241 201.166 287.177 202.095L289.54 204.505C289.86 204.832 290.352 204.932 290.771 204.731C290.993 204.631 291.214 204.531 291.436 204.455C291.879 204.28 292.15 203.878 292.15 203.401V199.987C292.15 198.681 293.208 197.602 294.488 197.602H302.858C304.138 197.602 305.197 198.681 305.197 199.987V203.401C305.197 203.878 305.467 204.28 305.91 204.455C306.132 204.556 306.354 204.631 306.575 204.731C306.994 204.932 307.486 204.832 307.806 204.505L310.169 202.095C311.08 201.166 312.557 201.166 313.492 202.095L319.401 208.121C319.844 208.572 320.09 209.175 320.09 209.803C320.09 210.43 319.844 211.033 319.401 211.485L317.037 213.895C316.717 214.221 316.619 214.723 316.816 215.15C316.914 215.376 317.013 215.602 317.087 215.828C317.259 216.28 317.653 216.556 318.12 216.556H321.468C322.748 216.556 323.807 217.635 323.807 218.941V227.477C323.807 228.782 322.748 229.862 321.468 229.862H318.12C317.653 229.862 317.259 230.138 317.087 230.59C316.988 230.816 316.914 231.042 316.816 231.268C316.619 231.694 316.717 232.196 317.037 232.523L319.401 234.933C320.311 235.862 320.311 237.368 319.401 238.322L313.492 244.347C312.582 245.276 311.105 245.276 310.169 244.347L307.806 241.937C307.486 241.611 306.994 241.51 306.575 241.711C306.354 241.812 306.132 241.912 305.91 241.987C305.467 242.163 305.197 242.565 305.197 243.042V246.456C305.197 247.787 304.163 248.841 302.858 248.841ZM290.328 240.356C290.648 240.356 290.968 240.431 291.288 240.556C291.485 240.657 291.706 240.732 291.903 240.833C292.814 241.184 293.405 242.063 293.405 243.067V246.481C293.405 247.109 293.897 247.611 294.513 247.611H302.883C303.498 247.611 303.99 247.109 303.99 246.481V243.067C303.99 242.088 304.581 241.209 305.492 240.833C305.714 240.757 305.91 240.657 306.107 240.556C306.994 240.155 308.027 240.356 308.717 241.059L311.08 243.469C311.523 243.921 312.212 243.921 312.655 243.469L318.564 237.443C319.007 236.992 319.007 236.289 318.564 235.837L316.2 233.427C315.511 232.724 315.314 231.694 315.708 230.765C315.806 230.565 315.88 230.339 315.979 230.138C316.323 229.209 317.185 228.606 318.17 228.606H321.518C322.133 228.606 322.625 228.104 322.625 227.477V218.941C322.625 218.313 322.133 217.811 321.518 217.811H318.17C317.21 217.811 316.348 217.209 315.979 216.28C315.905 216.054 315.806 215.853 315.708 215.652C315.314 214.748 315.511 213.694 316.2 212.991L318.564 210.581C318.785 210.355 318.884 210.079 318.884 209.778C318.884 209.476 318.761 209.2 318.564 208.974L312.655 202.949C312.212 202.497 311.523 202.497 311.08 202.949L308.717 205.359C308.027 206.062 307.018 206.263 306.107 205.861C305.91 205.761 305.689 205.685 305.492 205.585C304.581 205.234 303.99 204.355 303.99 203.351V199.936C303.99 199.309 303.498 198.807 302.883 198.807H294.513C293.897 198.807 293.405 199.309 293.405 199.936V203.351C293.405 204.33 292.814 205.208 291.903 205.585C291.682 205.66 291.485 205.761 291.288 205.861C290.402 206.263 289.368 206.062 288.679 205.359L286.315 202.949C285.872 202.497 285.183 202.497 284.74 202.949L278.832 208.974C278.61 209.2 278.512 209.476 278.512 209.778C278.512 210.079 278.635 210.355 278.832 210.581L281.195 212.991C281.884 213.694 282.081 214.723 281.687 215.652C281.589 215.853 281.515 216.079 281.417 216.28C281.072 217.209 280.21 217.811 279.226 217.811H275.878C275.262 217.811 274.77 218.313 274.77 218.941V227.477C274.77 228.104 275.262 228.606 275.878 228.606H279.226C280.186 228.606 281.047 229.209 281.417 230.138C281.49 230.364 281.589 230.565 281.687 230.765C282.081 231.669 281.884 232.724 281.195 233.427L278.832 235.837C278.389 236.289 278.389 236.992 278.832 237.443L284.74 243.469C285.183 243.921 285.872 243.921 286.315 243.469L288.679 241.059C289.122 240.607 289.712 240.356 290.328 240.356ZM298.673 237.443C290.968 237.443 284.715 231.042 284.715 223.209C284.715 215.376 290.993 208.974 298.673 208.974C306.378 208.974 312.631 215.376 312.631 223.209C312.631 231.042 306.378 237.443 298.673 237.443ZM298.673 210.229C291.657 210.229 285.946 216.054 285.946 223.209C285.946 230.364 291.657 236.188 298.673 236.188C305.689 236.188 311.4 230.364 311.4 223.209C311.4 216.054 305.714 210.229 298.673 210.229ZM298.673 233.1C293.331 233.1 288.974 228.657 288.974 223.209C288.974 217.761 293.331 213.317 298.673 213.317C304.015 213.317 308.372 217.761 308.372 223.209C308.372 228.657 304.04 233.1 298.673 233.1ZM298.673 214.573C293.996 214.573 290.205 218.439 290.205 223.209C290.205 227.979 293.996 231.845 298.673 231.845C303.35 231.845 307.141 227.979 307.141 223.209C307.141 218.439 303.35 214.573 298.673 214.573Z" fill="black"/>
<path d="M415.854 246.933C413.835 246.933 411.792 246.657 409.773 246.104C409.453 246.004 409.256 245.678 409.33 245.326C409.429 245 409.749 244.799 410.093 244.874C415.78 246.431 421.713 245.653 426.808 242.64C431.904 239.652 435.547 234.807 437.074 229.008C438.6 223.209 437.837 217.158 434.883 211.961C431.953 206.765 427.202 203.049 421.516 201.493C409.773 198.279 397.662 205.384 394.511 217.359C394.412 217.685 394.092 217.886 393.748 217.811C393.428 217.71 393.231 217.384 393.305 217.033C396.628 204.405 409.429 196.898 421.811 200.288C427.818 201.944 432.815 205.861 435.917 211.359C439.018 216.857 439.831 223.234 438.231 229.359C436.606 235.485 432.766 240.581 427.375 243.745C423.854 245.878 419.891 246.933 415.854 246.933Z" fill="white"/>
<path d="M415.854 246.933C413.835 246.933 411.792 246.657 409.773 246.104C409.453 246.004 409.256 245.678 409.33 245.326C409.429 245 409.749 244.799 410.093 244.874C415.78 246.431 421.713 245.653 426.808 242.64C431.904 239.652 435.547 234.807 437.074 229.008C438.6 223.209 437.837 217.158 434.883 211.961C431.953 206.765 427.202 203.049 421.516 201.493C409.773 198.279 397.662 205.384 394.511 217.359C394.412 217.685 394.092 217.886 393.748 217.811C393.428 217.71 393.231 217.384 393.305 217.033C396.628 204.405 409.429 196.898 421.811 200.288C427.818 201.944 432.815 205.861 435.917 211.359C439.018 216.857 439.831 223.234 438.231 229.359C436.606 235.485 432.766 240.581 427.375 243.745C423.854 245.878 419.891 246.933 415.854 246.933Z" fill="black"/>
<path d="M415.78 246.933C410.733 246.933 405.835 245.251 401.748 242.088C396.8 238.247 393.625 232.673 392.788 226.397C392.738 226.045 392.984 225.744 393.304 225.694C393.649 225.644 393.945 225.895 393.994 226.221C394.782 232.171 397.809 237.443 402.487 241.083C407.164 244.724 412.949 246.28 418.783 245.477C419.128 245.427 419.423 245.678 419.472 246.004C419.522 246.355 419.276 246.657 418.955 246.707C417.897 246.858 416.838 246.933 415.78 246.933Z" fill="black"/>
<path d="M393.846 218.765C393.65 218.765 393.453 218.664 393.33 218.489L389.022 211.836C388.825 211.535 388.923 211.158 389.194 210.957C389.489 210.756 389.859 210.857 390.055 211.133L394.043 217.309L400.37 213.719C400.665 213.543 401.035 213.669 401.207 213.97C401.379 214.271 401.256 214.648 400.961 214.823L394.142 218.69C394.068 218.74 393.945 218.765 393.846 218.765Z" fill="black"/>
<path d="M412.187 237.043C412.064 237.043 411.941 237.018 411.842 236.943C411.572 236.742 411.498 236.365 411.695 236.064L420.04 223.838H410.956C410.71 223.838 410.513 223.712 410.415 223.486C410.316 223.26 410.341 223.009 410.488 222.833L420.754 209.076C420.951 208.8 421.344 208.749 421.615 208.95C421.886 209.151 421.935 209.553 421.738 209.829L412.236 222.557H421.246C421.468 222.557 421.689 222.683 421.788 222.884C421.886 223.085 421.886 223.336 421.738 223.536L412.729 236.742C412.556 236.943 412.384 237.043 412.187 237.043Z" fill="black"/>
<path d="M298.672 359.179C297.564 359.179 296.457 358.752 295.62 357.899L279.865 341.832C279.052 341.003 278.609 339.898 278.609 338.719C278.609 337.539 279.052 336.434 279.865 335.605L295.62 319.538C297.294 317.831 300.026 317.831 301.725 319.538L317.48 335.605C318.292 336.434 318.735 337.539 318.735 338.719C318.735 339.898 318.292 341.003 317.48 341.832L301.725 357.899C300.888 358.752 299.78 359.179 298.672 359.179ZM298.672 319.513C297.884 319.513 297.097 319.814 296.481 320.442L280.726 336.509C279.52 337.739 279.52 339.723 280.726 340.953L296.481 357.02C297.688 358.25 299.632 358.25 300.839 357.02L316.593 340.953C317.8 339.723 317.8 337.739 316.593 336.509L300.839 320.442C300.248 319.814 299.46 319.513 298.672 319.513Z" fill="black"/>
<path d="M298.672 375.75C297.564 375.75 296.457 375.323 295.62 374.469L279.865 358.402C279.052 357.573 278.609 356.469 278.609 355.289C278.609 354.109 279.052 353.004 279.865 352.176L295.62 336.108C297.294 334.401 300.026 334.401 301.725 336.108L317.48 352.176C318.292 353.004 318.735 354.109 318.735 355.289C318.735 356.469 318.292 357.573 317.48 358.402L301.725 374.469C300.888 375.323 299.78 375.75 298.672 375.75ZM296.506 373.591C297.712 374.821 299.657 374.821 300.863 373.591L316.618 357.523C317.824 356.293 317.824 354.31 316.618 353.08L300.863 337.012C299.657 335.782 297.712 335.782 296.506 337.012L280.751 353.08C280.16 353.682 279.84 354.46 279.84 355.314C279.84 356.168 280.16 356.946 280.751 357.548L296.506 373.591Z" fill="black"/>
<path d="M151.295 223.207C151.295 223.207 168.01 219.04 166.459 213.943C164.909 208.822 144.599 225.341 151.295 223.207Z" fill="white"/>
<path d="M41.2321 197.477C41.2321 197.477 34.1178 204.079 31.9022 201.694C29.859 199.485 41.8721 192.857 41.2321 197.477Z" fill="white"/>
<path d="M435.499 366.109H392.764C390.573 366.109 388.801 364.302 388.801 362.068V326.87C388.801 324.636 390.573 322.828 392.764 322.828H405.467C407.288 322.828 408.864 324.083 409.307 325.866L410.365 330.084C410.685 331.314 411.768 332.192 413.024 332.192H435.524C437.715 332.192 439.487 334 439.487 336.234V362.068C439.463 364.302 437.69 366.109 435.499 366.109ZM392.764 324.108C391.262 324.108 390.032 325.364 390.032 326.895V362.093C390.032 363.624 391.262 364.879 392.764 364.879H435.499C437.001 364.879 438.232 363.624 438.232 362.093V336.259C438.232 334.728 437.001 333.473 435.499 333.473H412.999C411.178 333.473 409.602 332.217 409.159 330.435L408.101 326.217C407.781 324.987 406.697 324.108 405.442 324.108H392.764Z" fill="black"/>
<path d="M438.847 357.697H389.416C389.072 357.697 388.801 357.421 388.801 357.069C388.801 356.718 389.072 356.441 389.416 356.441H438.847C439.192 356.441 439.463 356.718 439.463 357.069C439.463 357.421 439.192 357.697 438.847 357.697Z" fill="black"/>
</svg>
